<svg id="svg" version="1.1" xmlns="http://www.w3.org/2000/svg" xmlns:xlink="http://www.w3.org/1999/xlink" width="60" height="60" viewBox="40, 40, 400,400"><g id="svgg"><path id="path3" d="M154.480 62.880 C 154.216 63.144,154.014 63.729,154.032 64.180 C 154.057 64.845,154.139 64.792,154.465 63.900 L 154.867 62.800 200.400 62.800 L 245.933 62.800 246.335 63.900 C 246.556 64.505,246.751 64.763,246.768 64.474 C 246.786 64.184,246.614 63.599,246.386 63.174 C 245.873 62.215,155.434 61.926,154.480 62.880 M153.382 68.182 C 153.229 69.202,153.194 70.127,153.304 70.237 C 153.414 70.347,153.629 69.602,153.782 68.582 C 153.935 67.561,153.970 66.637,153.860 66.527 C 153.750 66.417,153.535 67.161,153.382 68.182 M246.887 67.200 C 246.891 67.750,247.032 68.740,247.200 69.400 L 247.505 70.600 247.513 69.400 C 247.517 68.740,247.376 67.750,247.200 67.200 L 246.880 66.200 246.887 67.200 M152.600 72.800 C 152.445 73.928,152.408 74.941,152.518 75.051 C 152.628 75.161,152.845 74.328,153.000 73.200 C 153.155 72.072,153.192 71.059,153.082 70.949 C 152.972 70.839,152.755 71.672,152.600 72.800 M247.695 71.800 C 247.695 72.460,247.832 73.540,248.000 74.200 L 248.305 75.400 248.305 74.200 C 248.305 73.540,248.168 72.460,248.000 71.800 L 247.695 70.600 247.695 71.800 M151.855 77.455 C 151.713 78.486,151.674 79.408,151.769 79.502 C 151.863 79.596,152.065 78.839,152.218 77.818 C 152.371 76.798,152.410 75.876,152.304 75.771 C 152.198 75.665,151.996 76.423,151.855 77.455 M248.487 76.600 C 248.483 77.260,248.624 78.250,248.800 78.800 L 249.120 79.800 249.113 78.800 C 249.109 78.250,248.968 77.260,248.800 76.600 L 248.495 75.400 248.487 76.600 M151.000 82.400 C 150.846 83.310,150.804 84.138,150.907 84.240 C 151.010 84.343,151.213 83.677,151.360 82.760 C 151.507 81.843,151.548 81.015,151.453 80.920 C 151.358 80.824,151.154 81.490,151.000 82.400 M249.287 81.400 C 249.291 81.840,249.432 82.740,249.600 83.400 C 249.874 84.478,249.906 84.498,249.913 83.600 C 249.917 83.050,249.776 82.150,249.600 81.600 C 249.349 80.816,249.281 80.773,249.287 81.400 M250.000 85.559 C 250.000 86.766,251.325 94.408,251.504 94.229 C 251.706 94.027,250.430 85.540,250.152 85.233 C 250.068 85.142,250.000 85.288,250.000 85.559 M150.282 86.750 C 150.127 87.493,150.020 88.573,150.044 89.150 C 150.073 89.842,150.210 89.587,150.447 88.400 C 150.645 87.410,150.752 86.330,150.685 86.000 C 150.619 85.670,150.438 86.008,150.282 86.750 M149.400 92.400 C 149.245 93.528,149.208 94.541,149.318 94.651 C 149.428 94.761,149.645 93.928,149.800 92.800 C 149.955 91.672,149.992 90.659,149.882 90.549 C 149.772 90.439,149.555 91.272,149.400 92.400 M251.670 95.400 C 251.657 95.840,251.795 96.920,251.977 97.800 C 252.255 99.145,252.308 99.209,252.307 98.200 C 252.305 96.799,251.708 94.170,251.670 95.400 M148.618 97.018 C 148.465 98.039,148.422 98.955,148.522 99.055 C 148.622 99.155,148.829 98.402,148.982 97.382 C 149.135 96.361,149.178 95.445,149.078 95.345 C 148.978 95.245,148.771 95.998,148.618 97.018 M147.853 101.236 C 147.714 101.931,147.621 102.972,147.647 103.550 C 147.672 104.128,147.855 103.627,148.052 102.439 C 148.437 100.121,148.273 99.134,147.853 101.236 M252.893 102.800 C 252.893 103.570,252.975 103.885,253.076 103.500 C 253.176 103.115,253.176 102.485,253.076 102.100 C 252.975 101.715,252.893 102.030,252.893 102.800 M253.453 106.400 C 253.756 109.151,254.712 114.042,254.762 113.100 C 254.805 112.312,253.655 105.218,253.385 104.600 C 253.289 104.380,253.319 105.190,253.453 106.400 M146.893 108.000 C 146.893 108.770,146.975 109.085,147.076 108.700 C 147.176 108.315,147.176 107.685,147.076 107.300 C 146.975 106.915,146.893 107.230,146.893 108.000 M146.200 111.600 C 146.045 112.728,146.002 113.736,146.106 113.839 C 146.209 113.942,146.416 113.100,146.567 111.967 C 146.717 110.834,146.759 109.826,146.661 109.728 C 146.563 109.629,146.355 110.472,146.200 111.600 M255.293 117.200 C 255.293 117.970,255.375 118.285,255.476 117.900 C 255.576 117.515,255.576 116.885,255.476 116.500 C 255.375 116.115,255.293 116.430,255.293 117.200 M145.293 117.600 C 145.293 118.370,145.375 118.685,145.476 118.300 C 145.576 117.915,145.576 117.285,145.476 116.900 C 145.375 116.515,145.293 116.830,145.293 117.600 M256.086 122.000 C 256.083 122.770,256.224 123.850,256.400 124.400 C 256.850 125.804,256.865 124.337,256.423 122.200 L 256.092 120.600 256.086 122.000 M144.075 124.388 C 143.422 128.541,143.683 128.115,139.661 131.594 C 133.721 136.732,125.839 145.825,122.663 151.200 C 121.372 153.387,122.254 152.443,124.108 149.654 C 128.292 143.363,134.272 136.733,141.835 130.000 C 143.810 128.242,145.410 123.630,144.741 121.622 C 144.655 121.364,144.355 122.608,144.075 124.388 M256.864 126.666 C 256.812 127.687,257.128 128.230,258.490 129.466 C 267.010 137.196,272.916 143.834,277.175 150.465 C 280.185 155.151,280.639 155.761,279.361 153.400 C 275.697 146.633,268.403 137.904,260.523 130.857 C 257.967 128.572,257.210 127.649,257.087 126.663 L 256.928 125.400 256.864 126.666 M191.600 131.598 C 190.830 131.759,192.270 131.800,194.800 131.690 C 197.330 131.579,199.475 131.424,199.567 131.344 C 199.870 131.082,193.027 131.300,191.600 131.598 M201.233 131.344 C 201.325 131.424,203.470 131.582,206.000 131.696 C 208.892 131.827,210.006 131.782,209.000 131.575 C 207.435 131.253,200.904 131.059,201.233 131.344 M187.000 132.400 L 186.200 132.744 187.000 132.732 C 187.440 132.726,188.250 132.576,188.800 132.400 L 189.800 132.080 188.800 132.068 C 188.250 132.062,187.440 132.211,187.000 132.400 M212.000 132.400 C 212.550 132.576,213.360 132.720,213.800 132.720 C 214.433 132.720,214.392 132.654,213.600 132.400 C 213.050 132.224,212.240 132.080,211.800 132.080 C 211.167 132.080,211.208 132.146,212.000 132.400 M183.400 133.200 L 182.600 133.544 183.400 133.544 C 183.840 133.544,184.560 133.389,185.000 133.200 L 185.800 132.856 185.000 132.856 C 184.560 132.856,183.840 133.011,183.400 133.200 M215.800 133.200 C 216.240 133.389,216.960 133.538,217.400 133.532 C 218.043 133.523,218.004 133.457,217.200 133.200 C 215.832 132.762,214.781 132.762,215.800 133.200 M179.458 134.252 C 178.390 134.580,177.587 134.920,177.675 135.008 C 177.762 135.096,178.906 134.831,180.217 134.420 C 181.528 134.009,182.330 133.669,182.000 133.664 C 181.670 133.660,180.526 133.924,179.458 134.252 M220.583 134.420 C 221.894 134.831,223.036 135.097,223.122 135.011 C 223.308 134.825,219.247 133.584,218.627 133.636 C 218.392 133.657,219.272 134.009,220.583 134.420 M174.000 136.338 C 170.212 137.964,168.351 138.885,168.518 139.051 C 168.598 139.131,169.730 138.686,171.032 138.060 C 172.334 137.435,174.255 136.601,175.300 136.207 C 177.056 135.546,177.636 135.184,176.900 135.211 C 176.735 135.217,175.430 135.724,174.000 136.338 M223.600 135.346 C 223.600 135.426,224.455 135.814,225.500 136.207 C 226.545 136.601,228.467 137.436,229.771 138.062 C 232.351 139.300,233.022 139.501,231.789 138.665 C 230.275 137.638,223.600 134.932,223.600 135.346 M165.700 140.412 C 164.545 141.074,163.600 141.710,163.600 141.825 C 163.600 142.043,167.121 140.114,167.780 139.534 C 168.481 138.918,167.815 139.199,165.700 140.412 M233.370 139.694 C 243.231 146.170,244.000 146.764,249.023 151.782 C 253.048 155.802,254.976 158.113,257.423 161.849 C 261.760 168.469,261.694 168.376,260.950 166.800 C 256.738 157.880,242.920 144.062,234.000 139.850 C 233.230 139.486,232.947 139.416,233.370 139.694 M157.789 145.807 C 152.284 150.163,145.183 157.830,142.780 162.013 C 141.897 163.551,142.270 163.106,145.302 159.000 C 148.087 155.229,153.805 149.364,157.652 146.334 C 160.487 144.101,161.044 143.600,160.689 143.600 C 160.629 143.600,159.324 144.593,157.789 145.807 M120.693 154.500 C 119.239 157.015,118.649 158.251,119.118 157.800 C 119.641 157.297,122.106 152.800,121.859 152.800 C 121.758 152.800,121.234 153.565,120.693 154.500 M280.400 155.750 C 280.400 156.041,282.471 159.600,282.641 159.600 C 282.736 159.600,282.357 158.700,281.800 157.600 C 280.931 155.886,280.400 155.183,280.400 155.750 M116.795 161.867 C 115.348 165.077,113.199 170.736,113.219 171.285 C 113.229 171.568,113.924 169.996,114.764 167.792 C 115.603 165.588,116.687 163.005,117.173 162.053 C 117.658 161.101,117.968 160.235,117.861 160.128 C 117.754 160.021,117.275 160.803,116.795 161.867 M282.818 160.051 C 282.780 160.580,284.057 163.276,284.252 163.081 C 284.365 162.968,284.093 162.184,283.647 161.338 C 283.200 160.492,282.827 159.913,282.818 160.051 M141.105 164.500 C 140.244 165.822,139.046 168.265,139.488 167.800 C 140.011 167.250,142.074 163.600,141.863 163.600 C 141.769 163.600,141.428 164.005,141.105 164.500 M286.873 170.328 C 287.785 173.008,288.601 175.132,288.686 175.048 C 288.892 174.841,285.995 166.301,285.558 165.827 C 285.369 165.622,285.961 167.647,286.873 170.328 M137.809 170.687 C 136.324 173.819,135.136 176.870,135.328 177.061 C 135.414 177.147,135.808 176.359,136.204 175.309 C 136.600 174.259,137.435 172.334,138.060 171.032 C 138.686 169.730,139.132 168.598,139.052 168.518 C 138.972 168.439,138.413 169.414,137.809 170.687 M261.600 168.440 C 261.600 168.560,262.112 169.725,262.738 171.029 C 263.364 172.333,264.200 174.259,264.596 175.309 C 264.992 176.359,265.396 177.137,265.495 177.038 C 265.706 176.828,262.916 170.162,262.135 169.011 C 261.841 168.577,261.600 168.320,261.600 168.440 M111.770 175.453 C 111.622 176.084,111.253 177.583,110.950 178.784 C 110.648 179.985,110.417 181.245,110.438 181.584 C 110.458 181.923,110.900 180.496,111.419 178.414 C 111.937 176.332,112.289 174.556,112.200 174.467 C 112.112 174.378,111.918 174.822,111.770 175.453 M288.868 176.200 C 288.862 176.640,289.011 177.360,289.200 177.800 C 289.638 178.819,289.638 177.768,289.200 176.400 C 288.943 175.596,288.877 175.557,288.868 176.200 M134.227 179.633 C 133.882 180.795,133.616 181.938,133.636 182.173 C 133.657 182.408,134.009 181.528,134.420 180.217 C 134.831 178.906,135.097 177.764,135.011 177.678 C 134.925 177.591,134.572 178.472,134.227 179.633 M265.813 178.244 C 266.350 180.455,267.178 182.627,266.940 181.200 C 266.811 180.430,266.459 179.260,266.157 178.600 C 265.855 177.940,265.701 177.780,265.813 178.244 M289.668 179.600 C 289.662 180.150,289.811 180.960,290.000 181.400 L 290.344 182.200 290.332 181.400 C 290.326 180.960,290.176 180.150,290.000 179.600 L 289.680 178.600 289.668 179.600 M109.840 184.040 C 109.693 184.957,109.652 185.785,109.747 185.880 C 109.842 185.976,110.046 185.310,110.200 184.400 C 110.354 183.490,110.396 182.662,110.293 182.560 C 110.190 182.457,109.987 183.123,109.840 184.040 M290.487 183.400 C 290.483 184.060,290.624 185.050,290.800 185.600 L 291.120 186.600 291.113 185.600 C 291.109 185.050,290.968 184.060,290.800 183.400 L 290.495 182.200 290.487 183.400 M133.000 184.000 C 132.848 184.691,132.814 185.347,132.924 185.457 C 133.034 185.567,133.248 185.091,133.400 184.400 C 133.552 183.709,133.586 183.053,133.476 182.943 C 133.366 182.833,133.152 183.309,133.000 184.000 M267.268 183.400 C 267.262 183.840,267.411 184.560,267.600 185.000 C 268.038 186.019,268.038 184.968,267.600 183.600 C 267.343 182.796,267.277 182.757,267.268 183.400 M132.178 187.778 C 132.027 188.581,131.994 189.327,132.104 189.437 C 132.214 189.547,132.427 188.981,132.578 188.178 C 132.728 187.375,132.762 186.628,132.652 186.518 C 132.542 186.408,132.328 186.975,132.178 187.778 M268.087 187.000 C 268.091 187.440,268.232 188.340,268.400 189.000 C 268.674 190.078,268.706 190.098,268.713 189.200 C 268.717 188.650,268.576 187.750,268.400 187.200 C 268.149 186.416,268.081 186.373,268.087 187.000 M109.040 189.440 C 108.890 190.903,108.849 192.182,108.948 192.282 C 109.048 192.381,109.257 191.271,109.413 189.813 C 109.569 188.356,109.611 187.077,109.505 186.972 C 109.399 186.866,109.190 187.977,109.040 189.440 M291.273 188.200 C 291.258 188.860,291.395 190.120,291.577 191.000 C 292.013 193.106,292.050 191.214,291.620 188.800 C 291.380 187.450,291.293 187.300,291.273 188.200 M131.454 192.256 C 131.119 194.701,131.170 206.970,131.523 208.958 C 131.675 209.815,131.800 205.990,131.800 200.458 C 131.800 194.926,131.779 190.400,131.754 190.400 C 131.729 190.400,131.594 191.235,131.454 192.256 M269.000 200.381 C 269.000 205.736,269.125 209.415,269.277 208.558 C 269.619 206.636,269.599 193.439,269.253 191.823 C 269.114 191.175,269.000 195.026,269.000 200.381 M108.561 200.400 C 108.561 203.810,108.622 205.205,108.697 203.500 C 108.772 201.795,108.772 199.005,108.697 197.300 C 108.622 195.595,108.561 196.990,108.561 200.400 M292.160 200.200 C 292.161 203.500,292.222 204.797,292.298 203.082 C 292.373 201.367,292.372 198.667,292.297 197.082 C 292.221 195.497,292.159 196.900,292.160 200.200 M109.074 211.000 C 109.198 212.540,109.366 213.875,109.449 213.967 C 109.727 214.274,109.558 211.417,109.202 209.800 C 108.931 208.570,108.902 208.848,109.074 211.000 M291.400 210.800 C 291.244 212.147,291.201 213.334,291.305 213.438 C 291.409 213.542,291.619 212.522,291.771 211.171 C 291.924 209.821,291.967 208.634,291.867 208.533 C 291.766 208.433,291.556 209.453,291.400 210.800 M268.240 212.440 C 268.093 213.357,268.052 214.185,268.147 214.280 C 268.242 214.376,268.446 213.710,268.600 212.800 C 268.754 211.890,268.796 211.062,268.693 210.960 C 268.590 210.857,268.387 211.523,268.240 212.440 M132.080 211.800 C 132.080 212.240,132.224 213.050,132.400 213.600 C 132.654 214.392,132.720 214.433,132.720 213.800 C 132.720 213.360,132.576 212.550,132.400 212.000 C 132.146 211.208,132.080 211.167,132.080 211.800 M290.218 218.018 C 289.832 220.016,289.595 221.728,289.690 221.824 C 289.786 221.919,290.179 220.362,290.564 218.364 C 290.948 216.365,291.186 214.652,291.091 214.558 C 290.997 214.464,290.604 216.021,290.218 218.018 M109.687 215.400 C 109.691 215.840,109.832 216.740,110.000 217.400 C 110.274 218.478,110.306 218.498,110.313 217.600 C 110.317 217.050,110.176 216.150,110.000 215.600 C 109.749 214.816,109.681 214.773,109.687 215.400 M132.868 215.600 C 132.888 216.639,133.518 218.346,133.532 217.400 C 133.538 216.960,133.389 216.240,133.200 215.800 C 132.989 215.310,132.861 215.232,132.868 215.600 M267.400 216.400 C 267.248 217.091,267.207 217.741,267.309 217.842 C 267.411 217.944,267.609 217.453,267.750 216.750 C 267.891 216.047,267.931 215.398,267.841 215.308 C 267.750 215.217,267.552 215.709,267.400 216.400 M133.636 218.627 C 133.584 219.247,134.825 223.308,135.011 223.122 C 135.097 223.036,134.831 221.894,134.420 220.583 C 134.009 219.272,133.657 218.392,133.636 218.627 M266.293 220.693 C 265.942 221.955,265.722 223.055,265.804 223.137 C 265.886 223.219,266.250 222.263,266.613 221.013 C 266.977 219.763,267.197 218.664,267.103 218.570 C 267.009 218.476,266.645 219.431,266.293 220.693 M110.439 219.200 C 110.399 220.013,111.888 226.021,112.209 226.342 C 112.483 226.617,112.404 226.235,111.229 221.600 C 110.811 219.950,110.455 218.870,110.439 219.200 M289.000 223.600 C 288.848 224.291,288.807 224.941,288.909 225.042 C 289.011 225.144,289.209 224.653,289.350 223.950 C 289.491 223.247,289.531 222.598,289.441 222.508 C 289.350 222.417,289.152 222.909,289.000 223.600 M135.200 223.857 C 135.200 224.309,138.110 230.970,138.665 231.789 C 139.501 233.022,139.300 232.351,138.062 229.771 C 137.436 228.467,136.601 226.545,136.207 225.500 C 135.553 223.765,135.200 223.188,135.200 223.857 M263.975 226.909 C 262.324 230.861,262.215 231.175,262.765 230.400 C 263.378 229.537,265.684 223.951,265.503 223.770 C 265.419 223.686,264.732 225.098,263.975 226.909 M286.873 230.472 C 285.961 233.153,285.369 235.178,285.558 234.973 C 285.995 234.499,288.892 225.959,288.686 225.752 C 288.601 225.668,287.785 227.792,286.873 230.472 M113.223 229.491 C 113.174 230.547,117.520 241.013,117.865 240.668 C 117.943 240.590,117.447 239.291,116.763 237.781 C 116.078 236.272,115.007 233.678,114.382 232.018 C 113.757 230.358,113.235 229.221,113.223 229.491 M260.593 233.900 C 257.732 239.118,253.842 244.200,249.021 249.021 C 244.200 253.842,239.118 257.732,233.900 260.593 C 230.709 262.343,230.285 262.877,233.300 261.350 C 237.951 258.993,244.976 253.752,249.364 249.364 C 253.752 244.976,258.993 237.951,261.350 233.300 C 262.877 230.285,262.343 230.709,260.593 233.900 M139.850 234.000 C 144.062 242.920,157.880 256.738,166.800 260.950 C 168.376 261.694,168.469 261.760,161.849 257.423 C 158.113 254.976,155.802 253.048,151.782 249.023 C 146.764 244.000,146.170 243.231,139.694 233.370 C 139.416 232.947,139.486 233.230,139.850 234.000 M283.844 238.044 C 283.257 239.400,282.846 240.579,282.931 240.665 C 283.017 240.750,283.568 239.711,284.156 238.356 C 284.743 237.000,285.154 235.821,285.069 235.735 C 284.983 235.650,284.432 236.689,283.844 238.044 M119.020 243.240 C 119.589 244.362,120.134 245.199,120.233 245.101 C 120.423 244.910,118.451 241.200,118.159 241.200 C 118.064 241.200,118.452 242.118,119.020 243.240 M281.428 243.061 C 280.856 244.084,280.469 245.002,280.567 245.101 C 280.666 245.199,281.211 244.362,281.780 243.240 C 283.073 240.688,282.825 240.562,281.428 243.061 M121.000 246.800 C 121.341 247.460,121.711 248.000,121.821 248.000 C 121.931 248.000,121.741 247.460,121.400 246.800 C 121.059 246.140,120.689 245.600,120.579 245.600 C 120.469 245.600,120.659 246.140,121.000 246.800 M277.908 249.200 C 276.674 251.180,275.731 252.800,275.813 252.800 C 276.022 252.800,278.065 249.760,279.375 247.500 C 281.239 244.284,280.278 245.397,277.908 249.200 M122.677 249.627 C 125.815 254.956,135.567 266.037,140.959 270.400 C 143.357 272.340,143.389 272.404,144.191 276.837 C 144.486 278.467,144.738 279.260,144.750 278.600 C 144.813 275.160,143.751 272.368,141.740 270.690 C 135.901 265.815,127.478 256.358,123.401 250.100 C 122.126 248.143,121.602 247.801,122.677 249.627 M272.932 256.300 C 270.722 259.261,262.094 268.224,258.500 271.291 C 257.084 272.499,256.811 272.964,256.864 274.071 L 256.928 275.400 257.085 274.153 C 257.208 273.181,258.055 272.165,260.920 269.553 C 266.639 264.339,271.491 259.047,274.753 254.466 C 276.614 251.852,275.152 253.325,272.932 256.300 M169.011 262.135 C 170.162 262.916,176.828 265.706,177.038 265.495 C 177.137 265.396,176.359 264.992,175.309 264.596 C 174.259 264.200,172.333 263.364,171.029 262.738 C 168.449 261.500,167.778 261.299,169.011 262.135 M228.600 263.226 C 227.720 263.654,226.190 264.363,225.200 264.802 C 224.210 265.242,223.850 265.489,224.400 265.353 C 225.640 265.044,231.150 262.473,230.600 262.460 C 230.380 262.454,229.480 262.799,228.600 263.226 M178.600 266.157 C 179.260 266.459,180.430 266.811,181.200 266.940 C 182.410 267.142,182.362 267.095,180.844 266.596 C 178.204 265.727,177.255 265.542,178.600 266.157 M220.400 266.426 C 218.916 266.931,218.656 267.098,219.600 266.940 C 220.970 266.711,223.790 265.659,223.000 265.672 C 222.780 265.675,221.610 266.015,220.400 266.426 M183.600 267.600 C 184.968 268.038,186.019 268.038,185.000 267.600 C 184.560 267.411,183.840 267.262,183.400 267.268 C 182.757 267.277,182.796 267.343,183.600 267.600 M215.800 267.600 C 214.781 268.038,215.832 268.038,217.200 267.600 C 218.004 267.343,218.043 267.277,217.400 267.268 C 216.960 267.262,216.240 267.411,215.800 267.600 M187.200 268.400 C 187.750 268.576,188.650 268.717,189.200 268.713 C 190.098 268.706,190.078 268.674,189.000 268.400 C 187.308 267.969,185.856 267.969,187.200 268.400 M211.800 268.400 C 210.722 268.674,210.702 268.706,211.600 268.713 C 212.150 268.717,213.050 268.576,213.600 268.400 C 214.944 267.969,213.492 267.969,211.800 268.400 M192.242 269.277 C 193.099 269.429,196.770 269.554,200.400 269.554 C 204.030 269.554,207.701 269.429,208.558 269.277 C 209.415 269.125,205.744 269.000,200.400 269.000 C 195.056 269.000,191.385 269.125,192.242 269.277 M256.282 276.750 C 256.127 277.493,256.020 278.572,256.044 279.150 C 256.073 279.842,256.210 279.587,256.447 278.400 C 256.645 277.410,256.752 276.330,256.685 276.000 C 256.619 275.670,256.438 276.007,256.282 276.750 M145.293 283.200 C 145.293 283.970,145.375 284.285,145.476 283.900 C 145.576 283.515,145.576 282.885,145.476 282.500 C 145.375 282.115,145.293 282.430,145.293 283.200 M255.293 283.600 C 255.293 284.370,255.375 284.685,255.476 284.300 C 255.576 283.915,255.576 283.285,255.476 282.900 C 255.375 282.515,255.293 282.830,255.293 283.600 M146.093 287.800 C 146.094 288.460,146.232 289.540,146.400 290.200 C 146.823 291.863,146.842 290.226,146.423 288.200 C 146.145 286.855,146.092 286.791,146.093 287.800 M253.831 291.631 C 253.442 294.065,253.202 296.136,253.299 296.233 C 253.396 296.329,253.794 294.418,254.185 291.985 C 254.575 289.551,254.814 287.481,254.716 287.383 C 254.618 287.285,254.220 289.197,253.831 291.631 M146.893 292.800 C 146.893 293.570,146.975 293.885,147.076 293.500 C 147.176 293.115,147.176 292.485,147.076 292.100 C 146.975 291.715,146.893 292.030,146.893 292.800 M147.640 297.633 C 147.662 298.385,147.830 299.450,148.013 300.000 C 148.229 300.646,148.266 300.220,148.119 298.800 C 147.859 296.283,147.581 295.607,147.640 297.633 M252.893 298.000 C 252.893 298.770,252.975 299.085,253.076 298.700 C 253.176 298.315,253.176 297.685,253.076 297.300 C 252.975 296.915,252.893 297.230,252.893 298.000 M148.495 302.400 C 148.495 302.950,148.632 303.940,148.800 304.600 C 149.072 305.670,149.105 305.692,149.105 304.800 C 149.105 304.250,148.968 303.260,148.800 302.600 C 148.528 301.530,148.495 301.508,148.495 302.400 M251.855 303.455 C 251.713 304.486,251.674 305.408,251.769 305.502 C 251.863 305.596,252.065 304.839,252.218 303.818 C 252.371 302.798,252.410 301.876,252.304 301.771 C 252.198 301.665,251.996 302.423,251.855 303.455 M149.295 307.000 C 149.295 307.660,149.432 308.740,149.600 309.400 L 149.905 310.600 149.905 309.400 C 149.905 308.740,149.768 307.660,149.600 307.000 L 149.295 305.800 149.295 307.000 M250.654 310.554 C 250.281 312.949,250.071 315.004,250.188 315.121 C 250.304 315.238,250.400 315.155,250.400 314.937 C 250.400 314.719,250.684 312.887,251.031 310.865 C 251.379 308.843,251.589 306.966,251.498 306.694 C 251.407 306.422,251.027 308.159,250.654 310.554 M150.086 312.000 C 150.083 312.770,150.224 313.850,150.400 314.400 C 150.850 315.804,150.865 314.337,150.423 312.200 L 150.092 310.600 150.086 312.000 M150.887 317.200 C 150.883 317.750,151.024 318.650,151.200 319.200 C 151.631 320.544,151.631 319.092,151.200 317.400 C 150.926 316.322,150.894 316.302,150.887 317.200 M249.440 318.040 C 249.293 318.957,249.252 319.785,249.347 319.880 C 249.442 319.976,249.646 319.310,249.800 318.400 C 249.954 317.490,249.996 316.662,249.893 316.560 C 249.790 316.457,249.587 317.123,249.440 318.040 M151.872 323.000 C 151.999 324.100,152.169 325.075,152.251 325.167 C 152.532 325.482,152.320 322.999,151.980 322.000 C 151.751 321.326,151.716 321.651,151.872 323.000 M248.600 322.800 C 248.446 323.710,248.404 324.538,248.507 324.640 C 248.610 324.743,248.813 324.077,248.960 323.160 C 249.107 322.243,249.148 321.415,249.053 321.320 C 248.958 321.224,248.754 321.890,248.600 322.800 M152.495 326.600 C 152.495 327.260,152.632 328.340,152.800 329.000 L 153.105 330.200 153.105 329.000 C 153.105 328.340,152.968 327.260,152.800 326.600 L 152.495 325.400 152.495 326.600 M247.800 327.600 C 247.645 328.728,247.608 329.741,247.718 329.851 C 247.828 329.961,248.045 329.128,248.200 328.000 C 248.355 326.872,248.392 325.859,248.282 325.749 C 248.172 325.639,247.955 326.472,247.800 327.600 M153.287 331.400 C 153.283 332.060,153.424 333.050,153.600 333.600 L 153.920 334.600 153.913 333.600 C 153.909 333.050,153.768 332.060,153.600 331.400 L 153.295 330.200 153.287 331.400 M247.018 332.218 C 246.865 333.239,246.830 334.163,246.940 334.273 C 247.050 334.383,247.265 333.639,247.418 332.618 C 247.571 331.598,247.606 330.673,247.496 330.563 C 247.386 330.453,247.171 331.198,247.018 332.218 M154.032 336.326 C 153.898 338.555,150.441 338.400,200.400 338.400 C 250.359 338.400,246.902 338.555,246.768 336.326 C 246.751 336.037,246.556 336.295,246.335 336.900 L 245.933 338.000 200.400 338.000 L 154.867 338.000 154.465 336.900 C 154.244 336.295,154.049 336.037,154.032 336.326 " stroke="none" fill="#a7bcd4" fill-rule="evenodd"></path><path id="path4" d="M193.700 131.876 C 194.085 131.976,194.715 131.976,195.100 131.876 C 195.485 131.775,195.170 131.693,194.400 131.693 C 193.630 131.693,193.315 131.775,193.700 131.876 M205.700 131.876 C 206.085 131.976,206.715 131.976,207.100 131.876 C 207.485 131.775,207.170 131.693,206.400 131.693 C 205.630 131.693,205.315 131.775,205.700 131.876 M133.785 136.900 L 131.800 139.000 133.900 137.015 C 135.055 135.923,136.000 134.978,136.000 134.915 C 136.000 134.617,135.629 134.949,133.785 136.900 M267.200 137.325 C 267.200 137.394,267.785 137.979,268.500 138.625 L 269.800 139.800 268.625 138.500 C 267.530 137.288,267.200 137.016,267.200 137.325 M131.693 194.400 C 131.693 195.170,131.775 195.485,131.876 195.100 C 131.976 194.715,131.976 194.085,131.876 193.700 C 131.775 193.315,131.693 193.630,131.693 194.400 M131.693 206.400 C 131.693 207.170,131.775 207.485,131.876 207.100 C 131.976 206.715,131.976 206.085,131.876 205.700 C 131.775 205.315,131.693 205.630,131.693 206.400 M292.093 207.200 C 292.093 207.970,292.175 208.285,292.276 207.900 C 292.376 207.515,292.376 206.885,292.276 206.500 C 292.175 206.115,292.093 206.430,292.093 207.200 M267.375 263.300 L 266.200 264.600 267.500 263.425 C 268.712 262.330,268.984 262.000,268.675 262.000 C 268.606 262.000,268.021 262.585,267.375 263.300 M135.200 265.400 C 136.617 266.830,137.867 268.000,137.977 268.000 C 138.087 268.000,137.017 266.830,135.600 265.400 C 134.183 263.970,132.933 262.800,132.823 262.800 C 132.713 262.800,133.783 263.970,135.200 265.400 " stroke="none" fill="#98b4cc" fill-rule="evenodd"></path><path id="path0" d="M154.448 64.300 C 154.237 65.125,153.576 68.860,152.980 72.600 C 152.384 76.340,151.727 80.390,151.520 81.600 C 151.313 82.810,150.810 85.960,150.402 88.600 C 149.994 91.240,148.575 99.880,147.248 107.800 C 145.921 115.720,144.615 123.550,144.346 125.200 C 143.878 128.072,143.771 128.277,141.835 130.000 C 122.179 147.498,112.922 164.715,109.211 190.677 C 108.681 194.390,108.681 206.410,109.211 210.123 C 110.831 221.457,112.663 228.263,116.499 237.200 C 117.397 239.290,118.256 241.180,118.409 241.400 C 118.563 241.620,119.461 243.240,120.406 245.000 C 124.873 253.321,132.836 262.917,141.829 270.818 C 143.776 272.529,143.877 272.720,144.346 275.600 C 144.615 277.250,145.921 285.080,147.248 293.000 C 148.575 300.920,149.994 309.560,150.402 312.200 C 150.810 314.840,151.313 317.990,151.520 319.200 C 151.727 320.410,152.384 324.460,152.980 328.200 C 153.576 331.940,154.237 335.675,154.448 336.500 L 154.832 338.000 200.400 338.000 L 245.968 338.000 246.352 336.500 C 246.563 335.675,247.207 332.030,247.781 328.400 C 248.356 324.770,249.098 320.180,249.431 318.200 C 249.764 316.220,250.583 311.360,251.250 307.400 C 251.918 303.440,252.795 298.130,253.199 295.600 C 253.603 293.070,254.322 288.840,254.797 286.200 C 255.271 283.560,255.817 280.320,256.008 279.000 C 256.938 272.596,257.000 272.412,258.645 271.111 C 276.262 257.185,287.795 235.826,291.577 210.123 C 292.114 206.473,292.127 194.294,291.597 190.833 C 290.024 180.551,289.440 177.983,287.087 171.000 C 285.611 166.622,283.613 161.755,282.241 159.200 C 278.334 151.920,275.927 148.217,271.712 143.000 C 268.873 139.487,263.683 134.173,258.544 129.517 C 257.263 128.356,256.857 127.663,256.671 126.317 C 256.111 122.255,255.606 119.102,254.797 114.600 C 254.322 111.960,253.603 107.730,253.199 105.200 C 252.795 102.670,251.918 97.360,251.250 93.400 C 250.583 89.440,249.764 84.580,249.431 82.600 C 249.098 80.620,248.356 76.030,247.781 72.400 C 247.207 68.770,246.563 65.125,246.352 64.300 L 245.968 62.800 200.400 62.800 L 154.832 62.800 154.448 64.300 M210.200 131.765 C 269.984 142.295,290.599 214.038,245.108 253.248 C 211.641 282.095,158.678 271.402,138.657 231.756 C 117.109 189.087,142.745 140.054,191.000 131.638 C 194.329 131.058,206.646 131.139,210.200 131.765 " stroke="none" fill="#fafbfb" fill-rule="evenodd"></path><path id="path1" d="M0.170 58.700 C 0.271 90.985,0.466 119.335,0.603 121.700 C 0.772 124.629,0.716 126.000,0.426 126.000 C 0.126 126.000,0.000 166.412,0.000 263.000 L 0.000 400.000 200.000 400.000 L 400.000 400.000 400.000 200.000 L 400.000 0.000 199.994 0.000 L -0.013 0.000 0.170 58.700 M246.495 62.300 C 246.835 62.685,247.199 63.720,247.304 64.600 C 247.408 65.480,247.963 68.900,248.537 72.200 C 249.111 75.500,249.779 79.460,250.021 81.000 C 250.263 82.540,250.808 85.690,251.231 88.000 C 251.655 90.310,252.379 94.630,252.840 97.600 C 253.302 100.570,253.826 103.810,254.006 104.800 C 254.756 108.943,255.264 111.953,255.626 114.400 C 256.093 117.560,256.661 120.982,256.986 122.600 C 258.049 127.894,258.165 128.213,259.375 129.175 C 265.863 134.337,275.510 145.679,280.168 153.624 C 284.182 160.470,289.157 172.300,289.190 175.076 C 289.195 175.558,289.359 176.051,289.554 176.171 C 289.749 176.292,290.009 176.887,290.134 177.495 C 290.258 178.103,290.562 179.590,290.810 180.800 C 293.643 194.640,293.052 215.864,289.592 224.600 C 289.418 225.040,288.967 226.570,288.592 228.000 C 284.855 242.215,271.204 262.724,259.953 271.027 C 258.525 272.081,258.040 272.732,257.815 273.895 C 256.746 279.422,256.181 282.647,255.626 286.400 C 255.264 288.847,254.756 291.857,254.006 296.000 C 253.826 296.990,253.302 300.230,252.840 303.200 C 252.379 306.170,251.655 310.490,251.231 312.800 C 250.808 315.110,250.263 318.260,250.021 319.800 C 249.779 321.340,249.111 325.300,248.537 328.600 C 247.963 331.900,247.408 335.320,247.304 336.200 C 246.912 339.492,251.478 339.200,200.400 339.200 C 149.322 339.200,153.888 339.492,153.496 336.200 C 153.392 335.320,152.850 331.990,152.292 328.800 C 151.734 325.610,150.987 321.200,150.633 319.000 C 150.278 316.800,149.715 313.470,149.381 311.600 C 149.047 309.730,148.413 305.860,147.972 303.000 C 147.531 300.140,147.020 296.990,146.836 296.000 C 146.653 295.010,146.212 292.310,145.856 290.000 C 143.407 274.098,143.116 272.859,141.538 271.600 C 130.420 262.737,120.003 248.474,114.445 234.508 C 113.006 230.893,112.567 229.609,111.570 226.100 C 111.366 225.385,111.006 224.125,110.770 223.300 C 107.237 210.981,107.237 189.819,110.770 177.500 C 111.006 176.675,111.366 175.415,111.570 174.700 C 112.497 171.436,112.947 170.101,114.265 166.688 C 119.540 153.029,130.758 137.590,141.502 129.200 C 142.951 128.069,143.400 126.481,144.780 117.600 C 145.816 110.925,146.537 106.449,146.839 104.800 C 147.021 103.810,147.531 100.660,147.972 97.800 C 148.413 94.940,149.047 91.070,149.381 89.200 C 149.715 87.330,150.278 84.000,150.633 81.800 C 150.987 79.600,151.734 75.190,152.292 72.000 C 152.850 68.810,153.392 65.480,153.496 64.600 C 153.888 61.308,149.322 61.600,200.400 61.600 C 243.208 61.600,245.912 61.641,246.495 62.300 M194.400 132.222 C 193.850 132.315,191.870 132.590,190.000 132.832 C 184.408 133.556,177.085 135.700,172.324 138.005 C 170.968 138.662,169.698 139.200,169.501 139.200 C 169.305 139.200,168.359 139.740,167.400 140.400 C 166.441 141.060,165.545 141.600,165.410 141.600 C 165.039 141.600,159.229 145.571,157.862 146.760 C 152.192 151.687,151.687 152.192,146.760 157.862 C 145.571 159.229,141.600 165.039,141.600 165.410 C 141.600 165.545,141.060 166.441,140.400 167.400 C 139.740 168.359,139.200 169.305,139.200 169.501 C 139.200 169.698,138.681 170.930,138.046 172.241 C 130.174 188.491,130.174 212.309,138.046 228.559 C 138.681 229.870,139.200 231.180,139.200 231.471 C 139.200 231.762,139.359 232.000,139.553 232.000 C 139.748 232.000,140.010 232.315,140.136 232.700 C 140.632 234.217,144.835 240.715,146.773 242.961 C 149.603 246.242,152.228 249.000,154.326 250.898 C 158.103 254.316,158.909 254.973,161.440 256.691 C 185.087 272.750,215.713 272.750,239.360 256.691 C 244.740 253.038,253.038 244.740,256.691 239.360 C 272.744 215.722,272.744 185.078,256.691 161.440 C 254.973 158.909,254.316 158.103,250.898 154.326 C 249.000 152.228,246.242 149.603,242.961 146.773 C 240.715 144.835,234.217 140.632,232.700 140.136 C 232.315 140.010,232.000 139.748,232.000 139.553 C 232.000 139.359,231.762 139.200,231.471 139.200 C 231.180 139.200,229.832 138.662,228.476 138.005 C 224.199 135.934,217.599 133.904,212.064 132.958 C 208.722 132.387,196.449 131.876,194.400 132.222 " stroke="none" fill="#4474a4" fill-rule="evenodd"></path><path id="path2" d="M154.262 62.331 C 153.898 62.734,153.624 63.589,153.653 64.231 C 153.702 65.333,153.720 65.320,153.953 64.000 L 154.200 62.600 200.400 62.600 L 246.600 62.600 246.843 64.200 L 247.086 65.800 247.143 64.362 C 247.261 61.377,251.049 61.600,200.330 61.600 C 156.849 61.600,154.896 61.631,154.262 62.331 M153.024 67.259 C 152.899 67.997,152.438 70.656,151.999 73.170 C 151.559 75.683,151.215 78.203,151.232 78.770 C 151.250 79.336,151.785 76.750,152.421 73.023 C 153.058 69.295,153.505 66.172,153.415 66.082 C 153.325 65.992,153.149 66.522,153.024 67.259 M247.376 67.200 C 247.512 67.970,248.055 71.120,248.581 74.200 C 249.108 77.280,249.551 79.350,249.566 78.800 C 249.601 77.515,247.672 66.338,247.363 66.032 C 247.234 65.904,247.240 66.430,247.376 67.200 M150.460 82.850 C 150.427 83.428,150.311 84.508,150.201 85.250 L 150.003 86.600 150.424 85.257 C 150.655 84.519,150.772 83.439,150.682 82.857 L 150.520 81.800 150.460 82.850 M250.040 83.233 C 250.062 83.985,250.230 85.050,250.413 85.600 C 250.629 86.246,250.666 85.820,250.519 84.400 C 250.259 81.883,249.981 81.207,250.040 83.233 M149.400 88.800 C 149.245 89.928,149.208 90.941,149.318 91.051 C 149.428 91.161,149.645 90.328,149.800 89.200 C 149.955 88.072,149.992 87.059,149.882 86.949 C 149.772 86.839,149.555 87.672,149.400 88.800 M250.799 87.300 C 250.796 88.438,252.146 95.987,252.321 95.812 C 252.528 95.605,251.185 86.800,250.946 86.800 C 250.866 86.800,250.799 87.025,250.799 87.300 M148.445 94.800 C 148.180 96.670,147.857 98.830,147.728 99.600 C 147.599 100.370,147.598 100.905,147.724 100.789 C 148.058 100.484,149.290 92.469,149.093 91.888 C 149.002 91.620,148.710 92.930,148.445 94.800 M252.428 97.633 C 252.444 98.385,252.620 99.360,252.820 99.800 C 253.065 100.339,253.105 99.946,252.941 98.600 C 252.651 96.219,252.389 95.724,252.428 97.633 M147.000 103.600 C 146.846 104.510,146.811 105.344,146.921 105.454 C 147.031 105.564,147.246 104.910,147.400 104.000 C 147.554 103.090,147.589 102.256,147.479 102.146 C 147.369 102.036,147.154 102.690,147.000 103.600 M253.268 102.600 C 253.274 103.040,253.424 103.850,253.600 104.400 L 253.920 105.400 253.932 104.400 C 253.938 103.850,253.789 103.040,253.600 102.600 L 253.256 101.800 253.268 102.600 M146.182 108.182 C 146.029 109.202,145.994 110.127,146.104 110.237 C 146.214 110.347,146.429 109.602,146.582 108.582 C 146.735 107.561,146.770 106.637,146.660 106.527 C 146.550 106.417,146.335 107.161,146.182 108.182 M254.075 107.000 C 254.086 107.440,254.232 108.340,254.400 109.000 L 254.705 110.200 254.725 109.000 C 254.735 108.340,254.589 107.440,254.400 107.000 L 254.056 106.200 254.075 107.000 M145.418 112.726 C 145.253 113.895,145.213 114.946,145.329 115.062 C 145.614 115.347,146.131 111.787,145.900 111.125 C 145.800 110.836,145.582 111.557,145.418 112.726 M254.880 111.800 C 254.880 112.460,255.024 113.450,255.200 114.000 C 255.511 114.972,255.520 114.967,255.520 113.800 C 255.520 113.140,255.376 112.150,255.200 111.600 C 254.889 110.628,254.880 110.633,254.880 111.800 M0.047 120.900 C 0.018 124.065,0.152 126.000,0.400 126.000 C 0.867 126.000,0.867 118.834,0.400 117.000 C 0.207 116.243,0.077 117.683,0.047 120.900 M255.668 117.000 C 255.674 117.440,255.824 118.250,256.000 118.800 L 256.320 119.800 256.332 118.800 C 256.338 118.250,256.189 117.440,256.000 117.000 L 255.656 116.200 255.668 117.000 M144.600 118.400 C 144.446 119.310,144.404 120.138,144.507 120.240 C 144.610 120.343,144.813 119.677,144.960 118.760 C 145.107 117.843,145.148 117.015,145.053 116.920 C 144.958 116.824,144.754 117.490,144.600 118.400 M256.638 122.600 C 256.970 124.584,257.202 124.904,257.194 123.367 C 257.191 122.725,257.004 121.930,256.779 121.600 C 256.486 121.170,256.446 121.454,256.638 122.600 M143.778 122.978 C 143.627 123.781,143.594 124.527,143.704 124.637 C 143.814 124.747,144.027 124.181,144.178 123.378 C 144.328 122.575,144.362 121.828,144.252 121.718 C 144.142 121.608,143.928 122.175,143.778 122.978 M257.375 126.600 C 257.529 127.891,257.897 128.469,259.283 129.594 C 265.598 134.720,273.914 144.204,278.242 151.216 C 279.056 152.534,279.799 153.534,279.895 153.439 C 280.099 153.234,276.808 148.254,273.657 144.000 C 271.435 141.001,261.750 130.992,259.304 129.167 C 258.591 128.635,257.993 127.840,257.976 127.400 C 257.958 126.960,257.773 126.240,257.565 125.800 C 257.279 125.197,257.232 125.395,257.375 126.600 M143.012 127.143 C 142.854 127.867,142.163 128.786,141.274 129.455 C 138.556 131.502,131.549 138.565,128.628 142.200 C 125.526 146.061,120.632 153.165,120.893 153.426 C 120.980 153.513,122.063 152.013,123.300 150.092 C 127.630 143.367,133.994 136.169,140.712 130.399 C 142.955 128.473,144.082 126.748,143.486 126.153 C 143.371 126.037,143.157 126.483,143.012 127.143 M197.900 131.896 C 199.275 131.974,201.525 131.974,202.900 131.896 C 204.275 131.818,203.150 131.754,200.400 131.754 C 197.650 131.754,196.525 131.818,197.900 131.896 M189.400 132.445 C 188.300 132.640,186.797 132.902,186.059 133.026 C 185.322 133.150,184.792 133.326,184.883 133.416 C 184.973 133.506,186.746 133.319,188.823 133.001 C 190.901 132.682,193.230 132.355,194.000 132.274 C 194.973 132.173,194.790 132.122,193.400 132.109 C 192.300 132.098,190.500 132.249,189.400 132.445 M206.600 132.259 C 208.713 132.504,213.760 133.228,215.000 133.465 C 215.660 133.591,216.090 133.578,215.957 133.437 C 215.584 133.043,208.807 132.007,207.000 132.067 C 205.750 132.108,205.662 132.150,206.600 132.259 M181.000 134.301 C 179.900 134.640,179.180 134.979,179.400 135.053 C 179.620 135.127,180.880 134.840,182.200 134.415 C 183.520 133.991,184.240 133.652,183.800 133.663 C 183.360 133.674,182.100 133.961,181.000 134.301 M218.600 134.415 C 219.920 134.840,221.180 135.128,221.400 135.056 C 221.853 134.907,217.568 133.588,216.738 133.622 C 216.442 133.633,217.280 133.991,218.600 134.415 M177.200 135.600 C 176.667 135.945,176.667 135.988,177.200 135.988 C 177.530 135.988,178.070 135.813,178.400 135.600 C 178.933 135.255,178.933 135.212,178.400 135.212 C 178.070 135.212,177.530 135.387,177.200 135.600 M222.400 135.600 C 222.730 135.813,223.270 135.988,223.600 135.988 C 224.133 135.988,224.133 135.945,223.600 135.600 C 223.270 135.387,222.730 135.212,222.400 135.212 C 221.867 135.212,221.867 135.255,222.400 135.600 M172.453 137.453 C 171.713 137.776,171.201 138.134,171.316 138.249 C 171.431 138.364,172.216 138.093,173.062 137.647 C 174.835 136.711,174.441 136.586,172.453 137.453 M227.738 137.647 C 228.584 138.093,229.368 138.365,229.481 138.252 C 229.676 138.057,226.980 136.780,226.451 136.818 C 226.313 136.827,226.892 137.200,227.738 137.647 M166.000 140.800 C 165.450 141.230,165.180 141.582,165.400 141.582 C 165.620 141.582,166.250 141.230,166.800 140.800 C 167.350 140.370,167.620 140.018,167.400 140.018 C 167.180 140.018,166.550 140.370,166.000 140.800 M234.000 140.767 C 234.963 141.552,235.600 141.808,235.600 141.410 C 235.600 141.306,235.015 140.935,234.300 140.586 L 233.000 139.952 234.000 140.767 M161.896 143.408 C 160.413 144.403,159.200 145.304,159.200 145.412 C 159.200 145.519,160.460 144.769,162.000 143.745 C 164.450 142.116,165.098 141.600,164.696 141.600 C 164.638 141.600,163.378 142.414,161.896 143.408 M236.000 141.718 C 236.000 141.808,237.260 142.720,238.800 143.745 C 240.340 144.769,241.600 145.522,241.600 145.418 C 241.600 145.315,240.565 144.534,239.300 143.685 C 236.499 141.802,236.000 141.505,236.000 141.718 M156.396 147.524 C 151.922 151.323,144.996 158.800,145.951 158.800 C 146.198 158.800,146.403 158.665,146.406 158.500 C 146.425 157.608,154.144 149.719,157.762 146.894 C 158.400 146.396,158.848 145.915,158.758 145.824 C 158.667 145.734,157.605 146.499,156.396 147.524 M242.009 145.851 C 242.015 146.043,242.747 146.739,243.637 147.397 C 245.594 148.846,251.949 155.223,253.490 157.285 C 254.100 158.102,254.757 158.777,254.949 158.785 C 255.415 158.805,251.997 154.781,249.008 151.792 C 246.007 148.790,241.997 145.387,242.009 145.851 M119.443 155.700 C 118.004 158.169,114.656 165.193,114.842 165.353 C 114.929 165.429,116.270 162.905,117.823 159.745 C 120.732 153.826,121.164 152.747,119.443 155.700 M282.342 158.400 C 283.623 160.930,284.881 163.614,285.137 164.365 C 285.394 165.116,285.715 165.619,285.850 165.483 C 286.125 165.208,281.659 155.856,280.653 154.600 C 280.301 154.160,281.060 155.870,282.342 158.400 M143.685 161.500 C 141.802 164.301,141.505 164.800,141.718 164.800 C 141.808 164.800,142.720 163.540,143.745 162.000 C 144.769 160.460,145.522 159.200,145.418 159.200 C 145.315 159.200,144.534 160.235,143.685 161.500 M257.055 162.000 C 258.080 163.540,258.992 164.800,259.082 164.800 C 259.295 164.800,258.998 164.301,257.115 161.500 C 256.266 160.235,255.485 159.200,255.382 159.200 C 255.278 159.200,256.031 160.460,257.055 162.000 M140.622 166.222 C 140.245 166.798,140.016 167.349,140.114 167.447 C 140.212 167.545,140.600 167.154,140.978 166.578 C 141.355 166.002,141.584 165.451,141.486 165.353 C 141.388 165.255,141.000 165.646,140.622 166.222 M259.209 165.500 C 259.214 165.665,259.585 166.250,260.033 166.800 L 260.848 167.800 260.214 166.500 C 259.611 165.265,259.189 164.845,259.209 165.500 M113.000 170.000 C 112.625 171.129,112.410 172.143,112.521 172.254 C 112.632 172.366,113.002 171.505,113.343 170.343 C 114.147 167.599,113.885 167.336,113.000 170.000 M286.935 168.575 C 287.056 168.891,287.357 169.899,287.604 170.815 C 287.851 171.731,288.149 172.384,288.267 172.266 C 288.512 172.022,287.247 168.000,286.925 168.000 C 286.809 168.000,286.814 168.259,286.935 168.575 M137.423 172.606 C 136.560 174.672,136.674 174.906,137.647 173.062 C 138.093 172.216,138.365 171.432,138.252 171.319 C 138.139 171.206,137.766 171.785,137.423 172.606 M262.434 171.400 C 262.434 171.620,262.778 172.430,263.200 173.200 C 263.622 173.970,263.966 174.420,263.966 174.200 C 263.966 173.980,263.622 173.170,263.200 172.400 C 262.778 171.630,262.434 171.180,262.434 171.400 M111.800 173.600 C 111.650 174.073,111.617 174.550,111.727 174.660 C 111.837 174.770,112.050 174.473,112.200 174.000 C 112.350 173.527,112.383 173.050,112.273 172.940 C 112.163 172.830,111.950 173.127,111.800 173.600 M288.412 173.200 C 288.412 173.530,288.587 174.070,288.800 174.400 C 289.145 174.933,289.188 174.933,289.188 174.400 C 289.188 174.070,289.013 173.530,288.800 173.200 C 288.455 172.667,288.412 172.667,288.412 173.200 M111.073 176.153 C 110.923 176.545,110.811 177.166,110.825 177.533 C 110.842 177.975,110.981 177.874,111.237 177.234 C 111.449 176.703,111.561 176.082,111.485 175.854 C 111.409 175.627,111.224 175.761,111.073 176.153 M289.228 176.276 C 289.318 177.315,289.944 178.196,289.972 177.324 C 289.987 176.842,289.820 176.336,289.600 176.200 C 289.380 176.064,289.213 176.098,289.228 176.276 M135.400 177.600 C 135.250 178.073,135.217 178.550,135.327 178.660 C 135.437 178.770,135.650 178.473,135.800 178.000 C 135.950 177.527,135.983 177.050,135.873 176.940 C 135.763 176.830,135.550 177.127,135.400 177.600 M264.800 177.137 C 264.800 177.323,265.155 178.507,265.589 179.768 C 268.149 187.208,269.322 198.096,268.460 206.400 C 267.573 214.934,267.579 214.792,268.253 211.600 C 269.094 207.619,269.213 194.718,268.452 190.000 C 267.531 184.287,264.800 174.668,264.800 177.137 M110.249 179.015 C 110.112 179.373,110.016 180.056,110.036 180.533 C 110.062 181.147,110.185 181.008,110.459 180.056 C 110.857 178.672,110.694 177.858,110.249 179.015 M290.046 179.000 C 290.115 180.631,290.715 181.987,290.754 180.600 C 290.773 179.940,290.613 179.130,290.400 178.800 C 290.081 178.306,290.018 178.341,290.046 179.000 M134.262 181.262 C 133.346 184.391,133.469 185.142,134.415 182.200 C 134.840 180.880,135.128 179.620,135.056 179.400 C 134.983 179.180,134.626 180.018,134.262 181.262 M109.489 182.800 C 109.336 183.350,109.225 184.250,109.242 184.800 C 109.268 185.661,109.326 185.614,109.658 184.460 C 109.870 183.724,109.981 182.824,109.906 182.460 C 109.808 181.994,109.686 182.093,109.489 182.800 M290.887 182.800 C 290.891 183.350,291.032 184.340,291.200 185.000 L 291.505 186.200 291.513 185.000 C 291.517 184.340,291.376 183.350,291.200 182.800 L 290.880 181.800 290.887 182.800 M133.060 185.871 C 132.070 191.042,131.824 193.928,131.824 200.400 C 131.824 206.872,132.070 209.758,133.060 214.929 C 133.179 215.549,133.346 215.988,133.431 215.903 C 133.516 215.818,133.288 214.050,132.925 211.974 C 132.463 209.333,132.265 205.859,132.265 200.400 C 132.265 194.941,132.463 191.467,132.925 188.826 C 133.288 186.750,133.516 184.982,133.431 184.897 C 133.346 184.812,133.179 185.251,133.060 185.871 M108.656 188.484 C 108.521 188.988,108.430 190.120,108.454 191.000 C 108.492 192.378,108.546 192.271,108.843 190.228 C 109.198 187.799,109.095 186.846,108.656 188.484 M291.866 190.000 C 292.001 191.210,292.177 192.275,292.256 192.367 C 292.594 192.758,292.352 188.944,292.004 188.400 C 291.748 187.999,291.702 188.530,291.866 190.000 M107.936 197.700 C 107.842 199.295,107.880 201.860,108.020 203.400 C 108.225 205.654,108.286 205.089,108.337 200.500 C 108.405 194.365,108.210 193.007,107.936 197.700 M292.529 200.400 C 292.529 204.580,292.595 205.390,292.765 203.300 C 292.894 201.705,292.894 199.095,292.765 197.500 C 292.595 195.410,292.529 196.220,292.529 200.400 M108.406 210.033 C 108.409 211.005,108.585 212.070,108.796 212.400 C 109.052 212.801,109.098 212.270,108.934 210.800 C 108.627 208.052,108.398 207.720,108.406 210.033 M292.064 209.600 C 292.023 210.370,291.889 211.450,291.767 212.000 C 291.576 212.858,291.609 212.900,291.995 212.295 C 292.243 211.907,292.377 210.827,292.293 209.895 C 292.151 208.327,292.134 208.305,292.064 209.600 M267.002 216.100 C 266.858 216.815,266.655 217.760,266.551 218.200 C 266.404 218.820,266.445 218.865,266.730 218.400 C 267.149 217.716,267.732 214.800,267.450 214.800 C 267.347 214.800,267.146 215.385,267.002 216.100 M291.018 216.618 C 290.865 217.639,290.830 218.563,290.940 218.673 C 291.050 218.783,291.265 218.039,291.418 217.018 C 291.571 215.998,291.606 215.073,291.496 214.963 C 291.386 214.853,291.171 215.598,291.018 216.618 M109.268 216.200 C 109.262 216.860,109.411 217.760,109.600 218.200 C 110.070 219.294,110.070 217.467,109.600 216.000 C 109.288 215.025,109.279 215.030,109.268 216.200 M133.622 216.738 C 133.588 217.568,134.907 221.853,135.056 221.400 C 135.128 221.180,134.840 219.920,134.415 218.600 C 133.991 217.280,133.633 216.442,133.622 216.738 M265.440 221.440 C 265.053 222.667,264.824 223.758,264.931 223.865 C 265.038 223.972,265.423 223.037,265.787 221.787 C 266.647 218.829,266.355 218.537,265.440 221.440 M290.253 220.541 C 290.086 221.388,290.041 222.175,290.155 222.288 C 290.458 222.591,290.897 220.585,290.714 219.732 C 290.620 219.290,290.437 219.611,290.253 220.541 M110.046 220.400 C 110.027 220.950,110.187 221.670,110.400 222.000 C 110.894 222.764,110.894 221.942,110.400 220.400 L 110.080 219.400 110.046 220.400 M135.212 222.400 C 135.212 222.730,135.387 223.270,135.600 223.600 C 135.945 224.133,135.988 224.133,135.988 223.600 C 135.988 223.270,135.813 222.730,135.600 222.400 C 135.255 221.867,135.212 221.867,135.212 222.400 M110.834 223.400 C 110.822 223.840,110.987 224.470,111.200 224.800 C 111.714 225.595,111.714 224.596,111.200 223.400 L 110.856 222.600 110.834 223.400 M289.646 223.067 C 289.621 223.324,289.484 223.864,289.341 224.267 C 289.140 224.836,289.194 224.897,289.579 224.542 C 289.852 224.291,289.989 223.751,289.884 223.342 C 289.779 222.934,289.672 222.810,289.646 223.067 M111.612 226.400 C 111.612 226.730,111.787 227.270,112.000 227.600 C 112.345 228.133,112.388 228.133,112.388 227.600 C 112.388 227.270,112.213 226.730,112.000 226.400 C 111.655 225.867,111.612 225.867,111.612 226.400 M136.818 226.451 C 136.780 226.980,138.057 229.676,138.252 229.481 C 138.365 229.368,138.093 228.584,137.647 227.738 C 137.200 226.892,136.827 226.313,136.818 226.451 M263.072 227.819 C 262.132 229.789,262.264 230.124,263.247 228.262 C 263.693 227.416,263.987 226.654,263.901 226.567 C 263.814 226.481,263.441 227.044,263.072 227.819 M112.400 228.729 C 112.400 229.280,113.681 232.853,113.826 232.707 C 114.001 232.532,112.796 228.400,112.570 228.400 C 112.476 228.400,112.400 228.548,112.400 228.729 M287.584 230.060 C 287.327 231.017,286.854 232.307,286.534 232.927 C 286.213 233.547,286.020 234.260,286.104 234.512 C 286.188 234.764,286.765 233.578,287.385 231.876 C 288.006 230.173,288.410 228.677,288.283 228.550 C 288.156 228.423,287.842 229.102,287.584 230.060 M140.586 234.300 C 140.935 235.015,141.306 235.600,141.410 235.600 C 141.808 235.600,141.552 234.963,140.767 234.000 L 139.952 233.000 140.586 234.300 M259.814 234.235 C 259.441 234.804,259.227 235.361,259.339 235.472 C 259.450 235.583,259.829 235.118,260.181 234.437 C 260.959 232.933,260.744 232.815,259.814 234.235 M285.344 235.843 C 285.193 236.259,284.658 237.545,284.156 238.700 C 283.655 239.855,283.335 240.800,283.447 240.800 C 283.780 240.800,286.065 235.532,285.833 235.300 C 285.715 235.182,285.495 235.426,285.344 235.843 M141.846 236.500 C 142.686 237.932,145.255 241.600,145.418 241.600 C 145.522 241.600,144.769 240.340,143.745 238.800 C 142.720 237.260,141.808 236.000,141.718 236.000 C 141.627 236.000,141.685 236.225,141.846 236.500 M257.437 238.300 C 256.625 239.565,256.379 240.108,256.890 239.506 C 257.900 238.318,259.347 236.000,259.079 236.000 C 258.988 236.000,258.249 237.035,257.437 238.300 M115.600 237.341 C 115.600 237.781,119.473 245.322,120.150 246.200 C 120.490 246.640,119.676 244.840,118.342 242.200 C 115.904 237.375,115.600 236.836,115.600 237.341 M281.991 243.121 C 276.699 253.209,267.661 264.401,259.511 270.959 C 257.733 272.389,256.603 274.737,257.339 275.472 C 257.468 275.601,257.693 274.961,257.838 274.049 C 258.058 272.680,258.424 272.156,259.952 271.028 C 265.616 266.848,275.589 255.098,280.051 247.347 C 282.210 243.599,283.275 241.541,283.131 241.398 C 283.046 241.312,282.533 242.088,281.991 243.121 M147.443 244.300 C 150.984 248.498,158.823 255.858,158.785 254.949 C 158.777 254.757,158.102 254.100,157.285 253.490 C 155.223 251.949,148.846 245.594,147.397 243.637 C 146.739 242.747,146.043 242.015,145.851 242.009 C 145.660 242.004,146.376 243.035,147.443 244.300 M253.400 243.651 C 251.992 245.567,242.936 254.400,242.380 254.400 C 242.171 254.400,242.000 254.602,242.000 254.849 C 242.000 255.395,245.729 252.288,249.008 249.008 C 252.010 246.007,255.413 241.997,254.949 242.009 C 254.757 242.015,254.060 242.754,253.400 243.651 M120.800 247.349 C 120.800 249.838,135.394 266.924,141.233 271.272 C 142.025 271.861,142.858 272.935,143.093 273.670 C 143.469 274.845,143.523 274.884,143.559 274.007 C 143.590 273.261,142.931 272.420,140.900 270.613 C 133.728 264.234,128.489 258.345,123.777 251.363 C 120.799 246.953,120.800 246.954,120.800 247.349 M159.200 255.382 C 159.200 255.485,160.235 256.266,161.500 257.115 C 164.301 258.998,164.800 259.295,164.800 259.082 C 164.800 258.992,163.540 258.080,162.000 257.055 C 160.460 256.031,159.200 255.278,159.200 255.382 M238.287 257.368 C 235.926 259.002,235.364 259.575,237.106 258.572 C 238.450 257.799,240.756 256.023,240.400 256.036 C 240.290 256.041,239.339 256.640,238.287 257.368 M165.200 259.390 C 165.200 259.494,165.785 259.865,166.500 260.214 L 167.800 260.848 166.800 260.033 C 165.837 259.248,165.200 258.992,165.200 259.390 M234.000 260.033 L 233.000 260.848 234.300 260.214 C 235.015 259.865,235.600 259.494,235.600 259.390 C 235.600 258.992,234.963 259.248,234.000 260.033 M172.400 263.200 C 173.170 263.622,173.980 263.966,174.200 263.966 C 174.420 263.966,173.970 263.622,173.200 263.200 C 172.430 262.778,171.620 262.434,171.400 262.434 C 171.180 262.434,171.630 262.778,172.400 263.200 M227.600 263.200 C 226.830 263.622,226.380 263.966,226.600 263.966 C 226.820 263.966,227.630 263.622,228.400 263.200 C 229.170 262.778,229.620 262.434,229.400 262.434 C 229.180 262.434,228.370 262.778,227.600 263.200 M176.800 264.961 C 176.800 265.431,185.447 267.718,190.000 268.452 C 194.718 269.213,207.619 269.094,211.600 268.253 C 214.816 267.573,214.508 267.586,206.600 268.461 C 198.429 269.365,187.274 268.171,179.768 265.589 C 177.477 264.801,176.800 264.658,176.800 264.961 M221.000 265.600 C 219.900 266.006,219.152 266.352,219.338 266.369 C 219.845 266.415,224.000 265.170,224.000 264.972 C 224.000 264.652,223.006 264.860,221.000 265.600 M216.624 266.850 C 215.757 267.053,214.947 267.321,214.824 267.445 C 214.501 267.771,217.686 267.162,218.400 266.761 C 219.139 266.346,218.672 266.370,216.624 266.850 M143.675 276.600 C 143.665 277.260,143.811 278.160,144.000 278.600 L 144.344 279.400 144.325 278.600 C 144.314 278.160,144.168 277.260,144.000 276.600 L 143.695 275.400 143.675 276.600 M256.653 277.741 C 256.486 278.588,256.441 279.375,256.555 279.488 C 256.858 279.791,257.297 277.785,257.114 276.932 C 257.020 276.490,256.837 276.811,256.653 277.741 M144.487 281.200 C 144.483 281.750,144.624 282.650,144.800 283.200 C 145.231 284.544,145.231 283.092,144.800 281.400 C 144.526 280.322,144.494 280.302,144.487 281.200 M255.822 282.622 C 255.672 283.425,255.638 284.172,255.748 284.282 C 255.858 284.392,256.072 283.825,256.222 283.022 C 256.373 282.219,256.406 281.473,256.296 281.363 C 256.186 281.253,255.973 281.819,255.822 282.622 M145.207 285.833 C 145.211 286.255,145.480 288.220,145.805 290.200 C 146.131 292.180,146.398 293.965,146.398 294.167 C 146.399 294.368,146.504 294.430,146.630 294.303 C 146.757 294.176,146.557 292.121,146.186 289.736 C 145.540 285.581,145.192 284.194,145.207 285.833 M254.982 287.782 C 254.829 288.802,254.802 289.735,254.922 289.855 C 255.042 289.975,255.265 289.239,255.418 288.218 C 255.571 287.198,255.598 286.265,255.478 286.145 C 255.358 286.025,255.135 286.761,254.982 287.782 M254.254 292.354 C 254.100 293.318,254.058 294.191,254.161 294.294 C 254.430 294.563,254.915 291.745,254.707 291.122 C 254.612 290.836,254.408 291.390,254.254 292.354 M146.880 296.000 C 146.880 296.550,147.024 297.450,147.200 298.000 L 147.520 299.000 147.520 298.000 C 147.520 297.450,147.376 296.550,147.200 296.000 L 146.880 295.000 146.880 296.000 M253.422 297.022 C 253.272 297.825,253.238 298.572,253.348 298.682 C 253.458 298.792,253.672 298.225,253.822 297.422 C 253.973 296.619,254.006 295.873,253.896 295.763 C 253.786 295.653,253.573 296.219,253.422 297.022 M147.728 301.200 C 147.857 301.970,148.180 304.130,148.445 306.000 C 148.710 307.870,149.002 309.180,149.093 308.912 C 149.290 308.331,148.058 300.316,147.724 300.011 C 147.598 299.895,147.599 300.430,147.728 301.200 M252.676 301.210 C 252.530 301.755,252.428 302.740,252.449 303.400 C 252.480 304.357,252.559 304.236,252.842 302.800 C 253.229 300.833,253.102 299.617,252.676 301.210 M251.415 309.215 C 251.025 311.649,250.792 313.725,250.897 313.831 C 251.003 313.936,251.409 312.032,251.800 309.600 C 252.191 307.168,252.424 305.091,252.318 304.985 C 252.212 304.878,251.806 306.782,251.415 309.215 M149.295 310.600 C 149.295 311.260,149.432 312.340,149.600 313.000 L 149.905 314.200 149.905 313.000 C 149.905 312.340,149.768 311.260,149.600 310.600 L 149.295 309.400 149.295 310.600 M150.281 316.400 C 150.406 317.610,150.574 318.675,150.654 318.767 C 150.935 319.087,150.717 316.191,150.387 315.200 C 150.171 314.554,150.134 314.980,150.281 316.400 M250.253 315.636 C 250.114 316.331,250.021 317.373,250.047 317.950 C 250.072 318.528,250.255 318.027,250.452 316.839 C 250.837 314.521,250.673 313.534,250.253 315.636 M151.056 321.000 C 151.405 324.286,153.182 334.517,153.447 334.767 C 153.583 334.895,153.589 334.460,153.461 333.800 C 153.334 333.140,152.854 330.170,152.395 327.200 C 151.454 321.107,150.693 317.581,151.056 321.000 M248.461 327.025 C 247.944 330.311,247.424 333.450,247.305 334.000 C 247.185 334.550,247.202 334.895,247.343 334.767 C 247.708 334.435,249.664 322.841,249.520 321.863 C 249.454 321.415,248.977 323.738,248.461 327.025 M246.779 336.600 L 246.600 338.200 200.400 338.200 L 154.200 338.200 153.953 336.800 L 153.705 335.400 153.653 336.638 C 153.536 339.388,150.096 339.200,200.470 339.200 C 251.490 339.200,247.454 339.448,247.107 336.337 L 246.958 335.000 246.779 336.600 " stroke="none" fill="#7b9fbf" fill-rule="evenodd"></path><path id="path3" d="M154.480 62.880 C 154.216 63.144,154.014 63.729,154.032 64.180 C 154.057 64.845,154.139 64.792,154.465 63.900 L 154.867 62.800 200.400 62.800 L 245.933 62.800 246.335 63.900 C 246.556 64.505,246.751 64.763,246.768 64.474 C 246.786 64.184,246.614 63.599,246.386 63.174 C 245.873 62.215,155.434 61.926,154.480 62.880 M153.382 68.182 C 153.229 69.202,153.194 70.127,153.304 70.237 C 153.414 70.347,153.629 69.602,153.782 68.582 C 153.935 67.561,153.970 66.637,153.860 66.527 C 153.750 66.417,153.535 67.161,153.382 68.182 M246.887 67.200 C 246.891 67.750,247.032 68.740,247.200 69.400 L 247.505 70.600 247.513 69.400 C 247.517 68.740,247.376 67.750,247.200 67.200 L 246.880 66.200 246.887 67.200 M152.600 72.800 C 152.445 73.928,152.408 74.941,152.518 75.051 C 152.628 75.161,152.845 74.328,153.000 73.200 C 153.155 72.072,153.192 71.059,153.082 70.949 C 152.972 70.839,152.755 71.672,152.600 72.800 M247.695 71.800 C 247.695 72.460,247.832 73.540,248.000 74.200 L 248.305 75.400 248.305 74.200 C 248.305 73.540,248.168 72.460,248.000 71.800 L 247.695 70.600 247.695 71.800 M151.855 77.455 C 151.713 78.486,151.674 79.408,151.769 79.502 C 151.863 79.596,152.065 78.839,152.218 77.818 C 152.371 76.798,152.410 75.876,152.304 75.771 C 152.198 75.665,151.996 76.423,151.855 77.455 M248.487 76.600 C 248.483 77.260,248.624 78.250,248.800 78.800 L 249.120 79.800 249.113 78.800 C 249.109 78.250,248.968 77.260,248.800 76.600 L 248.495 75.400 248.487 76.600 M151.000 82.400 C 150.846 83.310,150.804 84.138,150.907 84.240 C 151.010 84.343,151.213 83.677,151.360 82.760 C 151.507 81.843,151.548 81.015,151.453 80.920 C 151.358 80.824,151.154 81.490,151.000 82.400 M249.287 81.400 C 249.291 81.840,249.432 82.740,249.600 83.400 C 249.874 84.478,249.906 84.498,249.913 83.600 C 249.917 83.050,249.776 82.150,249.600 81.600 C 249.349 80.816,249.281 80.773,249.287 81.400 M250.000 85.559 C 250.000 86.766,251.325 94.408,251.504 94.229 C 251.706 94.027,250.430 85.540,250.152 85.233 C 250.068 85.142,250.000 85.288,250.000 85.559 M150.282 86.750 C 150.127 87.493,150.020 88.573,150.044 89.150 C 150.073 89.842,150.210 89.587,150.447 88.400 C 150.645 87.410,150.752 86.330,150.685 86.000 C 150.619 85.670,150.438 86.008,150.282 86.750 M149.400 92.400 C 149.245 93.528,149.208 94.541,149.318 94.651 C 149.428 94.761,149.645 93.928,149.800 92.800 C 149.955 91.672,149.992 90.659,149.882 90.549 C 149.772 90.439,149.555 91.272,149.400 92.400 M251.670 95.400 C 251.657 95.840,251.795 96.920,251.977 97.800 C 252.255 99.145,252.308 99.209,252.307 98.200 C 252.305 96.799,251.708 94.170,251.670 95.400 M148.618 97.018 C 148.465 98.039,148.422 98.955,148.522 99.055 C 148.622 99.155,148.829 98.402,148.982 97.382 C 149.135 96.361,149.178 95.445,149.078 95.345 C 148.978 95.245,148.771 95.998,148.618 97.018 M147.853 101.236 C 147.714 101.931,147.621 102.972,147.647 103.550 C 147.672 104.128,147.855 103.627,148.052 102.439 C 148.437 100.121,148.273 99.134,147.853 101.236 M252.893 102.800 C 252.893 103.570,252.975 103.885,253.076 103.500 C 253.176 103.115,253.176 102.485,253.076 102.100 C 252.975 101.715,252.893 102.030,252.893 102.800 M253.453 106.400 C 253.756 109.151,254.712 114.042,254.762 113.100 C 254.805 112.312,253.655 105.218,253.385 104.600 C 253.289 104.380,253.319 105.190,253.453 106.400 M146.893 108.000 C 146.893 108.770,146.975 109.085,147.076 108.700 C 147.176 108.315,147.176 107.685,147.076 107.300 C 146.975 106.915,146.893 107.230,146.893 108.000 M146.200 111.600 C 146.045 112.728,146.002 113.736,146.106 113.839 C 146.209 113.942,146.416 113.100,146.567 111.967 C 146.717 110.834,146.759 109.826,146.661 109.728 C 146.563 109.629,146.355 110.472,146.200 111.600 M255.293 117.200 C 255.293 117.970,255.375 118.285,255.476 117.900 C 255.576 117.515,255.576 116.885,255.476 116.500 C 255.375 116.115,255.293 116.430,255.293 117.200 M145.293 117.600 C 145.293 118.370,145.375 118.685,145.476 118.300 C 145.576 117.915,145.576 117.285,145.476 116.900 C 145.375 116.515,145.293 116.830,145.293 117.600 M256.086 122.000 C 256.083 122.770,256.224 123.850,256.400 124.400 C 256.850 125.804,256.865 124.337,256.423 122.200 L 256.092 120.600 256.086 122.000 M144.075 124.388 C 143.422 128.541,143.683 128.115,139.661 131.594 C 133.721 136.732,125.839 145.825,122.663 151.200 C 121.372 153.387,122.254 152.443,124.108 149.654 C 128.292 143.363,134.272 136.733,141.835 130.000 C 143.810 128.242,145.410 123.630,144.741 121.622 C 144.655 121.364,144.355 122.608,144.075 124.388 M256.864 126.666 C 256.812 127.687,257.128 128.230,258.490 129.466 C 267.010 137.196,272.916 143.834,277.175 150.465 C 280.185 155.151,280.639 155.761,279.361 153.400 C 275.697 146.633,268.403 137.904,260.523 130.857 C 257.967 128.572,257.210 127.649,257.087 126.663 L 256.928 125.400 256.864 126.666 M191.600 131.598 C 190.830 131.759,192.270 131.800,194.800 131.690 C 197.330 131.579,199.475 131.424,199.567 131.344 C 199.870 131.082,193.027 131.300,191.600 131.598 M201.233 131.344 C 201.325 131.424,203.470 131.582,206.000 131.696 C 208.892 131.827,210.006 131.782,209.000 131.575 C 207.435 131.253,200.904 131.059,201.233 131.344 M187.000 132.400 L 186.200 132.744 187.000 132.732 C 187.440 132.726,188.250 132.576,188.800 132.400 L 189.800 132.080 188.800 132.068 C 188.250 132.062,187.440 132.211,187.000 132.400 M212.000 132.400 C 212.550 132.576,213.360 132.720,213.800 132.720 C 214.433 132.720,214.392 132.654,213.600 132.400 C 213.050 132.224,212.240 132.080,211.800 132.080 C 211.167 132.080,211.208 132.146,212.000 132.400 M183.400 133.200 L 182.600 133.544 183.400 133.544 C 183.840 133.544,184.560 133.389,185.000 133.200 L 185.800 132.856 185.000 132.856 C 184.560 132.856,183.840 133.011,183.400 133.200 M215.800 133.200 C 216.240 133.389,216.960 133.538,217.400 133.532 C 218.043 133.523,218.004 133.457,217.200 133.200 C 215.832 132.762,214.781 132.762,215.800 133.200 M179.458 134.252 C 178.390 134.580,177.587 134.920,177.675 135.008 C 177.762 135.096,178.906 134.831,180.217 134.420 C 181.528 134.009,182.330 133.669,182.000 133.664 C 181.670 133.660,180.526 133.924,179.458 134.252 M220.583 134.420 C 221.894 134.831,223.036 135.097,223.122 135.011 C 223.308 134.825,219.247 133.584,218.627 133.636 C 218.392 133.657,219.272 134.009,220.583 134.420 M174.000 136.338 C 170.212 137.964,168.351 138.885,168.518 139.051 C 168.598 139.131,169.730 138.686,171.032 138.060 C 172.334 137.435,174.255 136.601,175.300 136.207 C 177.056 135.546,177.636 135.184,176.900 135.211 C 176.735 135.217,175.430 135.724,174.000 136.338 M223.600 135.346 C 223.600 135.426,224.455 135.814,225.500 136.207 C 226.545 136.601,228.467 137.436,229.771 138.062 C 232.351 139.300,233.022 139.501,231.789 138.665 C 230.275 137.638,223.600 134.932,223.600 135.346 M165.700 140.412 C 164.545 141.074,163.600 141.710,163.600 141.825 C 163.600 142.043,167.121 140.114,167.780 139.534 C 168.481 138.918,167.815 139.199,165.700 140.412 M233.370 139.694 C 243.231 146.170,244.000 146.764,249.023 151.782 C 253.048 155.802,254.976 158.113,257.423 161.849 C 261.760 168.469,261.694 168.376,260.950 166.800 C 256.738 157.880,242.920 144.062,234.000 139.850 C 233.230 139.486,232.947 139.416,233.370 139.694 M157.789 145.807 C 152.284 150.163,145.183 157.830,142.780 162.013 C 141.897 163.551,142.270 163.106,145.302 159.000 C 148.087 155.229,153.805 149.364,157.652 146.334 C 160.487 144.101,161.044 143.600,160.689 143.600 C 160.629 143.600,159.324 144.593,157.789 145.807 M120.693 154.500 C 119.239 157.015,118.649 158.251,119.118 157.800 C 119.641 157.297,122.106 152.800,121.859 152.800 C 121.758 152.800,121.234 153.565,120.693 154.500 M280.400 155.750 C 280.400 156.041,282.471 159.600,282.641 159.600 C 282.736 159.600,282.357 158.700,281.800 157.600 C 280.931 155.886,280.400 155.183,280.400 155.750 M116.795 161.867 C 115.348 165.077,113.199 170.736,113.219 171.285 C 113.229 171.568,113.924 169.996,114.764 167.792 C 115.603 165.588,116.687 163.005,117.173 162.053 C 117.658 161.101,117.968 160.235,117.861 160.128 C 117.754 160.021,117.275 160.803,116.795 161.867 M282.818 160.051 C 282.780 160.580,284.057 163.276,284.252 163.081 C 284.365 162.968,284.093 162.184,283.647 161.338 C 283.200 160.492,282.827 159.913,282.818 160.051 M141.105 164.500 C 140.244 165.822,139.046 168.265,139.488 167.800 C 140.011 167.250,142.074 163.600,141.863 163.600 C 141.769 163.600,141.428 164.005,141.105 164.500 M286.873 170.328 C 287.785 173.008,288.601 175.132,288.686 175.048 C 288.892 174.841,285.995 166.301,285.558 165.827 C 285.369 165.622,285.961 167.647,286.873 170.328 M137.809 170.687 C 136.324 173.819,135.136 176.870,135.328 177.061 C 135.414 177.147,135.808 176.359,136.204 175.309 C 136.600 174.259,137.435 172.334,138.060 171.032 C 138.686 169.730,139.132 168.598,139.052 168.518 C 138.972 168.439,138.413 169.414,137.809 170.687 M261.600 168.440 C 261.600 168.560,262.112 169.725,262.738 171.029 C 263.364 172.333,264.200 174.259,264.596 175.309 C 264.992 176.359,265.396 177.137,265.495 177.038 C 265.706 176.828,262.916 170.162,262.135 169.011 C 261.841 168.577,261.600 168.320,261.600 168.440 M111.770 175.453 C 111.622 176.084,111.253 177.583,110.950 178.784 C 110.648 179.985,110.417 181.245,110.438 181.584 C 110.458 181.923,110.900 180.496,111.419 178.414 C 111.937 176.332,112.289 174.556,112.200 174.467 C 112.112 174.378,111.918 174.822,111.770 175.453 M288.868 176.200 C 288.862 176.640,289.011 177.360,289.200 177.800 C 289.638 178.819,289.638 177.768,289.200 176.400 C 288.943 175.596,288.877 175.557,288.868 176.200 M134.227 179.633 C 133.882 180.795,133.616 181.938,133.636 182.173 C 133.657 182.408,134.009 181.528,134.420 180.217 C 134.831 178.906,135.097 177.764,135.011 177.678 C 134.925 177.591,134.572 178.472,134.227 179.633 M265.813 178.244 C 266.350 180.455,267.178 182.627,266.940 181.200 C 266.811 180.430,266.459 179.260,266.157 178.600 C 265.855 177.940,265.701 177.780,265.813 178.244 M289.668 179.600 C 289.662 180.150,289.811 180.960,290.000 181.400 L 290.344 182.200 290.332 181.400 C 290.326 180.960,290.176 180.150,290.000 179.600 L 289.680 178.600 289.668 179.600 M109.840 184.040 C 109.693 184.957,109.652 185.785,109.747 185.880 C 109.842 185.976,110.046 185.310,110.200 184.400 C 110.354 183.490,110.396 182.662,110.293 182.560 C 110.190 182.457,109.987 183.123,109.840 184.040 M290.487 183.400 C 290.483 184.060,290.624 185.050,290.800 185.600 L 291.120 186.600 291.113 185.600 C 291.109 185.050,290.968 184.060,290.800 183.400 L 290.495 182.200 290.487 183.400 M133.000 184.000 C 132.848 184.691,132.814 185.347,132.924 185.457 C 133.034 185.567,133.248 185.091,133.400 184.400 C 133.552 183.709,133.586 183.053,133.476 182.943 C 133.366 182.833,133.152 183.309,133.000 184.000 M267.268 183.400 C 267.262 183.840,267.411 184.560,267.600 185.000 C 268.038 186.019,268.038 184.968,267.600 183.600 C 267.343 182.796,267.277 182.757,267.268 183.400 M132.178 187.778 C 132.027 188.581,131.994 189.327,132.104 189.437 C 132.214 189.547,132.427 188.981,132.578 188.178 C 132.728 187.375,132.762 186.628,132.652 186.518 C 132.542 186.408,132.328 186.975,132.178 187.778 M268.087 187.000 C 268.091 187.440,268.232 188.340,268.400 189.000 C 268.674 190.078,268.706 190.098,268.713 189.200 C 268.717 188.650,268.576 187.750,268.400 187.200 C 268.149 186.416,268.081 186.373,268.087 187.000 M109.040 189.440 C 108.890 190.903,108.849 192.182,108.948 192.282 C 109.048 192.381,109.257 191.271,109.413 189.813 C 109.569 188.356,109.611 187.077,109.505 186.972 C 109.399 186.866,109.190 187.977,109.040 189.440 M291.273 188.200 C 291.258 188.860,291.395 190.120,291.577 191.000 C 292.013 193.106,292.050 191.214,291.620 188.800 C 291.380 187.450,291.293 187.300,291.273 188.200 M131.454 192.256 C 131.119 194.701,131.170 206.970,131.523 208.958 C 131.675 209.815,131.800 205.990,131.800 200.458 C 131.800 194.926,131.779 190.400,131.754 190.400 C 131.729 190.400,131.594 191.235,131.454 192.256 M269.000 200.381 C 269.000 205.736,269.125 209.415,269.277 208.558 C 269.619 206.636,269.599 193.439,269.253 191.823 C 269.114 191.175,269.000 195.026,269.000 200.381 M108.561 200.400 C 108.561 203.810,108.622 205.205,108.697 203.500 C 108.772 201.795,108.772 199.005,108.697 197.300 C 108.622 195.595,108.561 196.990,108.561 200.400 M292.160 200.200 C 292.161 203.500,292.222 204.797,292.298 203.082 C 292.373 201.367,292.372 198.667,292.297 197.082 C 292.221 195.497,292.159 196.900,292.160 200.200 M109.074 211.000 C 109.198 212.540,109.366 213.875,109.449 213.967 C 109.727 214.274,109.558 211.417,109.202 209.800 C 108.931 208.570,108.902 208.848,109.074 211.000 M291.400 210.800 C 291.244 212.147,291.201 213.334,291.305 213.438 C 291.409 213.542,291.619 212.522,291.771 211.171 C 291.924 209.821,291.967 208.634,291.867 208.533 C 291.766 208.433,291.556 209.453,291.400 210.800 M268.240 212.440 C 268.093 213.357,268.052 214.185,268.147 214.280 C 268.242 214.376,268.446 213.710,268.600 212.800 C 268.754 211.890,268.796 211.062,268.693 210.960 C 268.590 210.857,268.387 211.523,268.240 212.440 M132.080 211.800 C 132.080 212.240,132.224 213.050,132.400 213.600 C 132.654 214.392,132.720 214.433,132.720 213.800 C 132.720 213.360,132.576 212.550,132.400 212.000 C 132.146 211.208,132.080 211.167,132.080 211.800 M290.218 218.018 C 289.832 220.016,289.595 221.728,289.690 221.824 C 289.786 221.919,290.179 220.362,290.564 218.364 C 290.948 216.365,291.186 214.652,291.091 214.558 C 290.997 214.464,290.604 216.021,290.218 218.018 M109.687 215.400 C 109.691 215.840,109.832 216.740,110.000 217.400 C 110.274 218.478,110.306 218.498,110.313 217.600 C 110.317 217.050,110.176 216.150,110.000 215.600 C 109.749 214.816,109.681 214.773,109.687 215.400 M132.868 215.600 C 132.888 216.639,133.518 218.346,133.532 217.400 C 133.538 216.960,133.389 216.240,133.200 215.800 C 132.989 215.310,132.861 215.232,132.868 215.600 M267.400 216.400 C 267.248 217.091,267.207 217.741,267.309 217.842 C 267.411 217.944,267.609 217.453,267.750 216.750 C 267.891 216.047,267.931 215.398,267.841 215.308 C 267.750 215.217,267.552 215.709,267.400 216.400 M133.636 218.627 C 133.584 219.247,134.825 223.308,135.011 223.122 C 135.097 223.036,134.831 221.894,134.420 220.583 C 134.009 219.272,133.657 218.392,133.636 218.627 M266.293 220.693 C 265.942 221.955,265.722 223.055,265.804 223.137 C 265.886 223.219,266.250 222.263,266.613 221.013 C 266.977 219.763,267.197 218.664,267.103 218.570 C 267.009 218.476,266.645 219.431,266.293 220.693 M110.439 219.200 C 110.399 220.013,111.888 226.021,112.209 226.342 C 112.483 226.617,112.404 226.235,111.229 221.600 C 110.811 219.950,110.455 218.870,110.439 219.200 M289.000 223.600 C 288.848 224.291,288.807 224.941,288.909 225.042 C 289.011 225.144,289.209 224.653,289.350 223.950 C 289.491 223.247,289.531 222.598,289.441 222.508 C 289.350 222.417,289.152 222.909,289.000 223.600 M135.200 223.857 C 135.200 224.309,138.110 230.970,138.665 231.789 C 139.501 233.022,139.300 232.351,138.062 229.771 C 137.436 228.467,136.601 226.545,136.207 225.500 C 135.553 223.765,135.200 223.188,135.200 223.857 M263.975 226.909 C 262.324 230.861,262.215 231.175,262.765 230.400 C 263.378 229.537,265.684 223.951,265.503 223.770 C 265.419 223.686,264.732 225.098,263.975 226.909 M286.873 230.472 C 285.961 233.153,285.369 235.178,285.558 234.973 C 285.995 234.499,288.892 225.959,288.686 225.752 C 288.601 225.668,287.785 227.792,286.873 230.472 M113.223 229.491 C 113.174 230.547,117.520 241.013,117.865 240.668 C 117.943 240.590,117.447 239.291,116.763 237.781 C 116.078 236.272,115.007 233.678,114.382 232.018 C 113.757 230.358,113.235 229.221,113.223 229.491 M260.593 233.900 C 257.732 239.118,253.842 244.200,249.021 249.021 C 244.200 253.842,239.118 257.732,233.900 260.593 C 230.709 262.343,230.285 262.877,233.300 261.350 C 237.951 258.993,244.976 253.752,249.364 249.364 C 253.752 244.976,258.993 237.951,261.350 233.300 C 262.877 230.285,262.343 230.709,260.593 233.900 M139.850 234.000 C 144.062 242.920,157.880 256.738,166.800 260.950 C 168.376 261.694,168.469 261.760,161.849 257.423 C 158.113 254.976,155.802 253.048,151.782 249.023 C 146.764 244.000,146.170 243.231,139.694 233.370 C 139.416 232.947,139.486 233.230,139.850 234.000 M283.844 238.044 C 283.257 239.400,282.846 240.579,282.931 240.665 C 283.017 240.750,283.568 239.711,284.156 238.356 C 284.743 237.000,285.154 235.821,285.069 235.735 C 284.983 235.650,284.432 236.689,283.844 238.044 M119.020 243.240 C 119.589 244.362,120.134 245.199,120.233 245.101 C 120.423 244.910,118.451 241.200,118.159 241.200 C 118.064 241.200,118.452 242.118,119.020 243.240 M281.428 243.061 C 280.856 244.084,280.469 245.002,280.567 245.101 C 280.666 245.199,281.211 244.362,281.780 243.240 C 283.073 240.688,282.825 240.562,281.428 243.061 M121.000 246.800 C 121.341 247.460,121.711 248.000,121.821 248.000 C 121.931 248.000,121.741 247.460,121.400 246.800 C 121.059 246.140,120.689 245.600,120.579 245.600 C 120.469 245.600,120.659 246.140,121.000 246.800 M277.908 249.200 C 276.674 251.180,275.731 252.800,275.813 252.800 C 276.022 252.800,278.065 249.760,279.375 247.500 C 281.239 244.284,280.278 245.397,277.908 249.200 M122.677 249.627 C 125.815 254.956,135.567 266.037,140.959 270.400 C 143.357 272.340,143.389 272.404,144.191 276.837 C 144.486 278.467,144.738 279.260,144.750 278.600 C 144.813 275.160,143.751 272.368,141.740 270.690 C 135.901 265.815,127.478 256.358,123.401 250.100 C 122.126 248.143,121.602 247.801,122.677 249.627 M272.932 256.300 C 270.722 259.261,262.094 268.224,258.500 271.291 C 257.084 272.499,256.811 272.964,256.864 274.071 L 256.928 275.400 257.085 274.153 C 257.208 273.181,258.055 272.165,260.920 269.553 C 266.639 264.339,271.491 259.047,274.753 254.466 C 276.614 251.852,275.152 253.325,272.932 256.300 M169.011 262.135 C 170.162 262.916,176.828 265.706,177.038 265.495 C 177.137 265.396,176.359 264.992,175.309 264.596 C 174.259 264.200,172.333 263.364,171.029 262.738 C 168.449 261.500,167.778 261.299,169.011 262.135 M228.600 263.226 C 227.720 263.654,226.190 264.363,225.200 264.802 C 224.210 265.242,223.850 265.489,224.400 265.353 C 225.640 265.044,231.150 262.473,230.600 262.460 C 230.380 262.454,229.480 262.799,228.600 263.226 M178.600 266.157 C 179.260 266.459,180.430 266.811,181.200 266.940 C 182.410 267.142,182.362 267.095,180.844 266.596 C 178.204 265.727,177.255 265.542,178.600 266.157 M220.400 266.426 C 218.916 266.931,218.656 267.098,219.600 266.940 C 220.970 266.711,223.790 265.659,223.000 265.672 C 222.780 265.675,221.610 266.015,220.400 266.426 M183.600 267.600 C 184.968 268.038,186.019 268.038,185.000 267.600 C 184.560 267.411,183.840 267.262,183.400 267.268 C 182.757 267.277,182.796 267.343,183.600 267.600 M215.800 267.600 C 214.781 268.038,215.832 268.038,217.200 267.600 C 218.004 267.343,218.043 267.277,217.400 267.268 C 216.960 267.262,216.240 267.411,215.800 267.600 M187.200 268.400 C 187.750 268.576,188.650 268.717,189.200 268.713 C 190.098 268.706,190.078 268.674,189.000 268.400 C 187.308 267.969,185.856 267.969,187.200 268.400 M211.800 268.400 C 210.722 268.674,210.702 268.706,211.600 268.713 C 212.150 268.717,213.050 268.576,213.600 268.400 C 214.944 267.969,213.492 267.969,211.800 268.400 M192.242 269.277 C 193.099 269.429,196.770 269.554,200.400 269.554 C 204.030 269.554,207.701 269.429,208.558 269.277 C 209.415 269.125,205.744 269.000,200.400 269.000 C 195.056 269.000,191.385 269.125,192.242 269.277 M256.282 276.750 C 256.127 277.493,256.020 278.572,256.044 279.150 C 256.073 279.842,256.210 279.587,256.447 278.400 C 256.645 277.410,256.752 276.330,256.685 276.000 C 256.619 275.670,256.438 276.007,256.282 276.750 M145.293 283.200 C 145.293 283.970,145.375 284.285,145.476 283.900 C 145.576 283.515,145.576 282.885,145.476 282.500 C 145.375 282.115,145.293 282.430,145.293 283.200 M255.293 283.600 C 255.293 284.370,255.375 284.685,255.476 284.300 C 255.576 283.915,255.576 283.285,255.476 282.900 C 255.375 282.515,255.293 282.830,255.293 283.600 M146.093 287.800 C 146.094 288.460,146.232 289.540,146.400 290.200 C 146.823 291.863,146.842 290.226,146.423 288.200 C 146.145 286.855,146.092 286.791,146.093 287.800 M253.831 291.631 C 253.442 294.065,253.202 296.136,253.299 296.233 C 253.396 296.329,253.794 294.418,254.185 291.985 C 254.575 289.551,254.814 287.481,254.716 287.383 C 254.618 287.285,254.220 289.197,253.831 291.631 M146.893 292.800 C 146.893 293.570,146.975 293.885,147.076 293.500 C 147.176 293.115,147.176 292.485,147.076 292.100 C 146.975 291.715,146.893 292.030,146.893 292.800 M147.640 297.633 C 147.662 298.385,147.830 299.450,148.013 300.000 C 148.229 300.646,148.266 300.220,148.119 298.800 C 147.859 296.283,147.581 295.607,147.640 297.633 M252.893 298.000 C 252.893 298.770,252.975 299.085,253.076 298.700 C 253.176 298.315,253.176 297.685,253.076 297.300 C 252.975 296.915,252.893 297.230,252.893 298.000 M148.495 302.400 C 148.495 302.950,148.632 303.940,148.800 304.600 C 149.072 305.670,149.105 305.692,149.105 304.800 C 149.105 304.250,148.968 303.260,148.800 302.600 C 148.528 301.530,148.495 301.508,148.495 302.400 M251.855 303.455 C 251.713 304.486,251.674 305.408,251.769 305.502 C 251.863 305.596,252.065 304.839,252.218 303.818 C 252.371 302.798,252.410 301.876,252.304 301.771 C 252.198 301.665,251.996 302.423,251.855 303.455 M149.295 307.000 C 149.295 307.660,149.432 308.740,149.600 309.400 L 149.905 310.600 149.905 309.400 C 149.905 308.740,149.768 307.660,149.600 307.000 L 149.295 305.800 149.295 307.000 M250.654 310.554 C 250.281 312.949,250.071 315.004,250.188 315.121 C 250.304 315.238,250.400 315.155,250.400 314.937 C 250.400 314.719,250.684 312.887,251.031 310.865 C 251.379 308.843,251.589 306.966,251.498 306.694 C 251.407 306.422,251.027 308.159,250.654 310.554 M150.086 312.000 C 150.083 312.770,150.224 313.850,150.400 314.400 C 150.850 315.804,150.865 314.337,150.423 312.200 L 150.092 310.600 150.086 312.000 M150.887 317.200 C 150.883 317.750,151.024 318.650,151.200 319.200 C 151.631 320.544,151.631 319.092,151.200 317.400 C 150.926 316.322,150.894 316.302,150.887 317.200 M249.440 318.040 C 249.293 318.957,249.252 319.785,249.347 319.880 C 249.442 319.976,249.646 319.310,249.800 318.400 C 249.954 317.490,249.996 316.662,249.893 316.560 C 249.790 316.457,249.587 317.123,249.440 318.040 M151.872 323.000 C 151.999 324.100,152.169 325.075,152.251 325.167 C 152.532 325.482,152.320 322.999,151.980 322.000 C 151.751 321.326,151.716 321.651,151.872 323.000 M248.600 322.800 C 248.446 323.710,248.404 324.538,248.507 324.640 C 248.610 324.743,248.813 324.077,248.960 323.160 C 249.107 322.243,249.148 321.415,249.053 321.320 C 248.958 321.224,248.754 321.890,248.600 322.800 M152.495 326.600 C 152.495 327.260,152.632 328.340,152.800 329.000 L 153.105 330.200 153.105 329.000 C 153.105 328.340,152.968 327.260,152.800 326.600 L 152.495 325.400 152.495 326.600 M247.800 327.600 C 247.645 328.728,247.608 329.741,247.718 329.851 C 247.828 329.961,248.045 329.128,248.200 328.000 C 248.355 326.872,248.392 325.859,248.282 325.749 C 248.172 325.639,247.955 326.472,247.800 327.600 M153.287 331.400 C 153.283 332.060,153.424 333.050,153.600 333.600 L 153.920 334.600 153.913 333.600 C 153.909 333.050,153.768 332.060,153.600 331.400 L 153.295 330.200 153.287 331.400 M247.018 332.218 C 246.865 333.239,246.830 334.163,246.940 334.273 C 247.050 334.383,247.265 333.639,247.418 332.618 C 247.571 331.598,247.606 330.673,247.496 330.563 C 247.386 330.453,247.171 331.198,247.018 332.218 M154.032 336.326 C 153.898 338.555,150.441 338.400,200.400 338.400 C 250.359 338.400,246.902 338.555,246.768 336.326 C 246.751 336.037,246.556 336.295,246.335 336.900 L 245.933 338.000 200.400 338.000 L 154.867 338.000 154.465 336.900 C 154.244 336.295,154.049 336.037,154.032 336.326 " stroke="none" fill="#a7bcd4" fill-rule="evenodd"></path><path id="path4" d="M193.700 131.876 C 194.085 131.976,194.715 131.976,195.100 131.876 C 195.485 131.775,195.170 131.693,194.400 131.693 C 193.630 131.693,193.315 131.775,193.700 131.876 M205.700 131.876 C 206.085 131.976,206.715 131.976,207.100 131.876 C 207.485 131.775,207.170 131.693,206.400 131.693 C 205.630 131.693,205.315 131.775,205.700 131.876 M133.785 136.900 L 131.800 139.000 133.900 137.015 C 135.055 135.923,136.000 134.978,136.000 134.915 C 136.000 134.617,135.629 134.949,133.785 136.900 M267.200 137.325 C 267.200 137.394,267.785 137.979,268.500 138.625 L 269.800 139.800 268.625 138.500 C 267.530 137.288,267.200 137.016,267.200 137.325 M131.693 194.400 C 131.693 195.170,131.775 195.485,131.876 195.100 C 131.976 194.715,131.976 194.085,131.876 193.700 C 131.775 193.315,131.693 193.630,131.693 194.400 M131.693 206.400 C 131.693 207.170,131.775 207.485,131.876 207.100 C 131.976 206.715,131.976 206.085,131.876 205.700 C 131.775 205.315,131.693 205.630,131.693 206.400 M292.093 207.200 C 292.093 207.970,292.175 208.285,292.276 207.900 C 292.376 207.515,292.376 206.885,292.276 206.500 C 292.175 206.115,292.093 206.430,292.093 207.200 M267.375 263.300 L 266.200 264.600 267.500 263.425 C 268.712 262.330,268.984 262.000,268.675 262.000 C 268.606 262.000,268.021 262.585,267.375 263.300 M135.200 265.400 C 136.617 266.830,137.867 268.000,137.977 268.000 C 138.087 268.000,137.017 266.830,135.600 265.400 C 134.183 263.970,132.933 262.800,132.823 262.800 C 132.713 262.800,133.783 263.970,135.200 265.400 " stroke="none" fill="#98b4cc" fill-rule="evenodd"></path></g></svg>